<?xml version="1.0" encoding="utf-8"?>
<!-- Generator: Adobe Illustrator 23.0.5, SVG Export Plug-In . SVG Version: 6.00 Build 0)  -->
<svg version="1.1" xmlns="http://www.w3.org/2000/svg" xmlns:xlink="http://www.w3.org/1999/xlink" x="0px" y="0px"
	 viewBox="0 0 500.5 500" style="enable-background:new 0 0 500.5 500;" xml:space="preserve">
<style type="text/css">
	.st0{display:none;}
	.st1{display:inline;fill:#A4E8FB;}
	.st2{fill:#F9FBFC;}
	.st3{clip-path:url(#SVGID_2_);}
	.st4{clip-path:url(#SVGID_4_);}
	.st5{fill:#78D3F4;}
	.st6{fill:#5DC5F4;}
	.st7{fill:#F8AF00;}
	.st8{fill:#DF4505;}
	.st9{clip-path:url(#SVGID_4_);fill:#CFF6FF;}
	.st10{fill:#225B8B;}
	.st11{fill:#FFECC3;}
	.st12{fill:#4097D3;}
	.st13{fill:#F7541C;}
	.st14{fill:#4D1001;}
	.st15{clip-path:url(#SVGID_4_);fill:#DF4505;}
	.st16{fill:#FFE5D2;}
	.st17{fill:#A10E0D;}
	.st18{opacity:0.5;fill:#4097D3;}
	.st19{opacity:0.5;fill:#225B8B;}
	.st20{opacity:0.5;fill:#F8AF00;}
	.st21{fill:#FBC400;}
	.st22{clip-path:url(#SVGID_4_);fill:#F7541C;}
	.st23{clip-path:url(#SVGID_4_);fill:#FFECC3;}
	.st24{clip-path:url(#SVGID_4_);fill:#F8AF00;}
	.st25{clip-path:url(#SVGID_4_);fill:#F97F2A;}
	.st26{fill:#EF430D;}
	.st27{opacity:0.5;clip-path:url(#SVGID_4_);fill:#DF4505;}
	.st28{opacity:0.5;fill:#DF4505;}
	.st29{fill:#2A88BC;}
	.st30{fill:#F89800;}
	.st31{opacity:0.3;fill:#F8AF00;}
</style>
<g id="BACKGROUND" class="st0">
	<rect x="-124.7" class="st1" width="750" height="500"/>
</g>
<g id="OBJECTS">
</g>
<g id="DESIGNED_BY_FREEPIK">
	<g>
		<g id="XMLID_1_">
			<g id="XMLID_21_">
				<path id="XMLID_29_" class="st2" d="M260.4,462.7c-0.4,0.4-0.8,0.9-1.1,1.5l-0.5-0.2c-0.1-0.3-0.3-0.5-0.7-0.5
					c-0.3,0-0.6,0.3-0.5,0.7c0,0.3,0.3,0.6,0.7,0.5c0.1,0,0.1,0,0.2-0.1l0.5,0.2c-0.3,0.6-0.4,1.1-0.5,1.7l0.7,0.1
					c0.2-1.3,0.8-2.5,1.8-3.5L260.4,462.7z"/>
				<path id="XMLID_28_" class="st2" d="M265.9,460.4c-0.2,0-0.3,0-0.5,0l-0.1-0.6c0.2-0.1,0.3-0.4,0.3-0.6c0-0.4-0.4-0.7-0.8-0.6
					c-0.4,0-0.7,0.4-0.6,0.8c0,0.3,0.2,0.5,0.4,0.6l0.1,0.6c-0.7,0.1-1.4,0.3-2.1,0.6l0.3,0.7c0.9-0.4,1.9-0.7,3-0.7
					c0.5,0,1,0.1,1.5,0.2l0.2-0.7C267,460.4,266.4,460.4,265.9,460.4z"/>
				<path id="XMLID_27_" class="st2" d="M272.5,462.9c0.3,0,0.6-0.3,0.5-0.7c0-0.3-0.3-0.6-0.7-0.5c-0.3,0-0.5,0.3-0.5,0.6l-0.4,0.4
					c-0.4-0.4-0.9-0.8-1.4-1.1l-0.4,0.6c1.1,0.7,2,1.7,2.6,2.9l0.7-0.3c-0.3-0.6-0.6-1.1-0.9-1.5l0.4-0.4
					C272.3,462.9,272.4,462.9,272.5,462.9z"/>
				<path id="XMLID_26_" class="st2" d="M265.3,470.6c-0.4,0-0.8,0-1.2,0c-0.9,0-1.7-0.1-2.5-0.2c-0.4-0.1-0.8-0.2-1.3-0.3
					c1,1.9,3.1,3.1,5.4,3.1c2.9,0,5.3-1.9,5.9-4.5c-0.7,0.4-1.5,0.8-2.5,1.1C268.1,470.3,266.7,470.5,265.3,470.6z"/>
				<path id="XMLID_22_" class="st2" d="M265.9,461.9c-3.4,0-6.1,2.7-6.1,5.9c0,0.4,0,0.8,0.1,1.3c0.7,0.5,2.7,0.9,5.3,0.7
					c2.9-0.2,5.3-1,6.7-2.2c0-0.2,0-0.4,0-0.6C271.5,464.1,268.9,461.9,265.9,461.9z M263.7,468.4c-1,0-1.8-0.8-1.8-1.8
					c0-1,0.8-1.8,1.8-1.8c1,0,1.8,0.8,1.8,1.8C265.5,467.6,264.7,468.4,263.7,468.4z M268.4,467.5c-0.8,0-1.4-0.6-1.4-1.4
					s0.6-1.4,1.4-1.4s1.4,0.6,1.4,1.4S269.2,467.5,268.4,467.5z"/>
			</g>
			<path id="XMLID_19_" class="st2" d="M281.9,463.8c-0.3-0.1-0.8-0.3-1.4-0.2c-0.6,0.1-0.8,0.3-0.8,1v0.9h2.2v1.7h-2.2v5.5h-1.9
				v-5.5h-1.3v-1.7h1.3v-0.9c0-1.7,0.9-2.8,2.6-2.8c0.6,0,1.2,0.1,1.6,0.3V463.8z"/>
			<path id="XMLID_17_" class="st2" d="M286.6,467.1c-0.2,0-0.4,0-0.5,0c-0.9,0-1.5,0.5-1.5,1.6v3.9h-1.9v-7.2h1.9v0.8
				c0.5-0.7,1.1-1,2-1c0.4,0,0.8,0.1,1.1,0.3L286.6,467.1z"/>
			<path id="XMLID_14_" class="st2" d="M294.2,469c0,0.2,0,0.5,0,0.7h-5.1c0.2,1,0.9,1.5,1.8,1.5c0.6,0,1.3-0.3,1.8-0.7l1.1,1.2
				c-0.8,0.7-1.9,1.1-3.1,1.1c-2.2,0-3.7-1.5-3.7-3.8c0-2.3,1.5-3.8,3.6-3.8C292.8,465.2,294.2,466.7,294.2,469z M289.1,468.3h3.2
				c-0.2-0.9-0.7-1.4-1.6-1.4C289.8,466.9,289.3,467.4,289.1,468.3z"/>
			<path id="XMLID_11_" class="st2" d="M301.9,469c0,0.2,0,0.5,0,0.7h-5.1c0.2,1,0.9,1.5,1.8,1.5c0.6,0,1.3-0.3,1.8-0.7l1.1,1.2
				c-0.8,0.7-1.9,1.1-3.1,1.1c-2.2,0-3.7-1.5-3.7-3.8c0-2.3,1.5-3.8,3.6-3.8C300.5,465.2,301.9,466.7,301.9,469z M296.8,468.3h3.2
				c-0.2-0.9-0.7-1.4-1.6-1.4C297.5,466.9,296.9,467.4,296.8,468.3z"/>
			<path id="XMLID_8_" class="st2" d="M310.2,469c0,2.2-1.5,3.8-3.5,3.8c-1,0-1.6-0.4-2.1-0.9v3.7h-1.9v-10.1h1.9v0.8
				c0.5-0.6,1.2-1,2.1-1C308.7,465.2,310.2,466.8,310.2,469z M304.5,469c0,1.1,0.7,2,1.8,2c1.1,0,1.9-0.9,1.9-2c0-1.1-0.7-2-1.9-2
				C305.3,467,304.5,467.8,304.5,469z"/>
			<path id="XMLID_4_" class="st2" d="M313.3,463c0,0.7-0.5,1.2-1.2,1.2c-0.7,0-1.2-0.5-1.2-1.2c0-0.7,0.5-1.2,1.2-1.2
				C312.8,461.8,313.3,462.3,313.3,463z M313.1,472.6h-1.9v-7.2h1.9V472.6z"/>
			<path id="XMLID_2_" class="st2" d="M316.3,467.9l2.7-2.6h2.4l-3.5,3.4l3.5,3.8H319l-2.7-2.9v2.9h-1.9v-10.7h1.9V467.9z"/>
		</g>
		<g>
			<path class="st2" d="M184.7,472.5v-1.1c-0.5,0.7-1.4,1.2-2.4,1.2c-1.8,0-3.1-1.4-3.1-3.7c0-2.3,1.3-3.7,3.1-3.7
				c1,0,1.8,0.5,2.4,1.2v-3.8h1.1v9.8H184.7z M184.7,470.6v-3.2c-0.4-0.6-1.2-1.1-2.1-1.1c-1.4,0-2.3,1.2-2.3,2.7
				c0,1.6,0.8,2.7,2.3,2.7C183.4,471.7,184.3,471.2,184.7,470.6z"/>
			<path class="st2" d="M187.2,469c0-2.1,1.5-3.7,3.5-3.7c2.1,0,3.4,1.7,3.4,3.8v0.3h-5.7c0.1,1.3,1,2.4,2.5,2.4
				c0.8,0,1.6-0.3,2.2-0.9l0.5,0.7c-0.7,0.7-1.7,1.1-2.8,1.1C188.7,472.7,187.2,471.2,187.2,469z M190.7,466.2
				c-1.5,0-2.3,1.3-2.3,2.4h4.6C193,467.5,192.3,466.2,190.7,466.2z"/>
			<path class="st2" d="M194.9,471.6l0.6-0.8c0.5,0.5,1.4,1,2.3,1c1.1,0,1.7-0.5,1.7-1.2c0-1.7-4.4-0.7-4.4-3.3c0-1.1,1-2,2.6-2
				c1.2,0,2.1,0.5,2.6,1l-0.5,0.8c-0.4-0.5-1.2-0.9-2.1-0.9c-1,0-1.6,0.5-1.6,1.1c0,1.6,4.4,0.5,4.4,3.3c0,1.2-1,2.1-2.8,2.1
				C196.6,472.7,195.6,472.3,194.9,471.6z"/>
			<path class="st2" d="M201.7,463.7c0-0.4,0.3-0.7,0.7-0.7c0.4,0,0.7,0.3,0.7,0.7c0,0.4-0.3,0.7-0.7,0.7
				C202.1,464.4,201.7,464.1,201.7,463.7z M201.9,472.5v-7.1h1.1v7.1H201.9z"/>
			<path class="st2" d="M204.8,474.3l0.6-0.8c0.6,0.7,1.3,1,2.3,1c1.2,0,2.3-0.6,2.3-2.1v-1c-0.5,0.7-1.4,1.3-2.4,1.3
				c-1.8,0-3.1-1.4-3.1-3.7c0-2.3,1.3-3.7,3.1-3.7c1,0,1.8,0.5,2.4,1.2v-1.1h1.1v6.9c0,2.3-1.6,3.1-3.4,3.1
				C206.5,475.4,205.7,475.1,204.8,474.3z M210,470.5v-3.1c-0.4-0.6-1.2-1.1-2.1-1.1c-1.4,0-2.3,1.1-2.3,2.7c0,1.6,0.8,2.7,2.3,2.7
				C208.7,471.6,209.6,471.1,210,470.5z"/>
			<path class="st2" d="M217.7,472.5v-4.6c0-1.2-0.6-1.6-1.6-1.6c-0.9,0-1.7,0.5-2.1,1.1v5.2h-1.1v-7.1h1.1v1
				c0.5-0.6,1.5-1.2,2.5-1.2c1.5,0,2.3,0.7,2.3,2.3v5H217.7z"/>
			<path class="st2" d="M220.2,469c0-2.1,1.5-3.7,3.5-3.7c2.1,0,3.4,1.7,3.4,3.8v0.3h-5.7c0.1,1.3,1,2.4,2.5,2.4
				c0.8,0,1.6-0.3,2.2-0.9l0.5,0.7c-0.7,0.7-1.7,1.1-2.8,1.1C221.7,472.7,220.2,471.2,220.2,469z M223.7,466.2
				c-1.5,0-2.3,1.3-2.3,2.4h4.6C226,467.5,225.3,466.2,223.7,466.2z"/>
			<path class="st2" d="M233.6,472.5v-1.1c-0.5,0.7-1.4,1.2-2.4,1.2c-1.8,0-3.1-1.4-3.1-3.7c0-2.3,1.3-3.7,3.1-3.7
				c1,0,1.8,0.5,2.4,1.2v-3.8h1.1v9.8H233.6z M233.6,470.6v-3.2c-0.4-0.6-1.2-1.1-2.1-1.1c-1.4,0-2.3,1.2-2.3,2.7
				c0,1.6,0.8,2.7,2.3,2.7C232.4,471.7,233.2,471.2,233.6,470.6z"/>
			<path class="st2" d="M240,472.5v-9.8h1.1v3.8c0.6-0.8,1.4-1.2,2.4-1.2c1.8,0,3.1,1.5,3.1,3.7c0,2.3-1.3,3.7-3.1,3.7
				c-1,0-1.9-0.5-2.4-1.2v1.1H240z M243.2,471.7c1.4,0,2.3-1.2,2.3-2.7c0-1.6-0.9-2.7-2.3-2.7c-0.9,0-1.7,0.5-2.1,1.1v3.2
				C241.4,471.2,242.3,471.7,243.2,471.7z"/>
			<path class="st2" d="M247.8,474.3c0.2,0.1,0.4,0.1,0.6,0.1c0.5,0,0.8-0.2,1.1-0.7l0.5-1.1l-3-7.1h1.2l2.4,5.8l2.3-5.8h1.2
				l-3.5,8.5c-0.4,1-1.1,1.4-2.1,1.4c-0.2,0-0.6,0-0.8-0.1L247.8,474.3z"/>
		</g>
	</g>
	<g>
		<defs>
			<rect id="SVGID_1_" x="2.2" y="1" width="499.9" height="499.9"/>
		</defs>
		<clipPath id="SVGID_2_">
			<use xlink:href="#SVGID_1_"  style="overflow:visible;"/>
		</clipPath>
		<g class="st3">
			<defs>
				<rect id="SVGID_3_" x="-124.7" width="750" height="500"/>
			</defs>
			<clipPath id="SVGID_4_">
				<use xlink:href="#SVGID_3_"  style="overflow:visible;"/>
			</clipPath>
			<g class="st4">
				<path class="st5" d="M-149.1,353.6c0,0,225.3-148.2,338.3-154.2c113-5.9,460.4,207.1,460.4,207.1v112.6h-798.7V353.6z"/>
				<path class="st6" d="M189.3,199.4c0,0-49,29.9-18.4,50.6c30.6,20.7,130.2,26.6,125.1,67.1c-5.1,40.5,285.9,118.1,353.6,89.5
					C649.6,406.6,302.3,193.5,189.3,199.4z"/>
			</g>
			<g class="st4">
				<path class="st7" d="M49.6,285c3.2-2.7,6.6-5.3,8.7-9c5.8-10.1-3.7-15.3-7.5-23.2c-3.2-6.8-0.4-15.3,4.5-20.9
					c5.4-6,13.8-11.7,12.2-19.8c-0.5-2.7-2.2-4.9-3.3-7.4c-3.2-7.6-0.4-13.7,4.5-17.8c8-6.6,19.5-6,26.7,1.4
					c4.5,4.6,6.6,10.9,2.6,18.2c-1.3,2.4-3.2,4.4-4,7c-2.5,7.8,5.3,14.4,10,21c4.3,6,6.1,14.8,2.2,21.2c-4.6,7.5-14.6,11.6-9.9,22.3
					c1.7,3.9,4.8,6.9,7.7,9.9c9.9,10.4,9.2,25.1-3.7,33c-7.7,4.7-16.8,5.3-25.6,5.9c-8.7-1.5-17.7-3.1-24.8-8.6
					C37.8,308.9,38.6,294.2,49.6,285z"/>
				<path class="st8" d="M78.6,278.5c-0.8,11.5-1.7,23-2.9,34.5c-0.1,1.2-0.3,2.4-0.4,3.7c1.8,0.2,5.6,0.5,9.7-0.3
					c7.5-1.5,12.3-5.9,14.5-13c0.1-0.4,0.6-0.6,1-0.5c0.4,0.1,0.6,0.6,0.5,1c-4.2,13.9-17.4,14.9-23.7,14.6c-0.9,0-1.6-0.1-2.2-0.2
					c-0.5,4-1.1,8-1.8,12c-0.5,2.9-1.1,5.7-1.8,8.6c-0.4,1.4-0.7,2.9-1.2,4.3c-0.5,1.4-1,2.8-1.8,4.3c0,0,0,0,0,0
					c-0.4,0.7-1.4,1-2.1,0.5c-0.7-0.4-1-1.4-0.5-2.1l0,0c0.6-1.1,1.2-2.4,1.6-3.7c0.5-1.3,0.9-2.7,1.2-4c0.7-2.7,1.3-5.5,1.8-8.3
					c1-5.6,1.9-11.3,2.6-17c0.8-6.3,1.5-12.7,2.1-19.1c-0.5,0-1.2,0-2,0c-2.3-0.1-5.3-0.7-7.9-2.7c-2.9-2.2-4.6-5.6-5.1-10.2
					c0-0.4,0.3-0.8,0.7-0.8c0.4,0,0.8,0.3,0.8,0.7c0.4,4.1,1.9,7.2,4.5,9.1c3.2,2.4,7.3,2.5,9.1,2.4c0.4-4.6,0.8-9.2,1.2-13.7
					c0.6-7.7,1.1-15.4,1.6-23.1c-2.6-0.2-16.5-2-16.9-15.5c0-0.4,0.3-0.8,0.8-0.8c0.4,0,0.8,0.3,0.8,0.8c0.2,5.6,2.8,9.6,8,12
					c3.2,1.5,6.4,1.9,7.5,2c0.2-3.3,0.4-6.6,0.6-9.9c0.5-9.6,1-19.2,1.4-28.9c0,0,0,0,0,0c-0.1,0-8.4-0.5-10.3-8.3
					c-0.1-0.4,0.2-0.8,0.6-0.9c0.4-0.1,0.8,0.2,0.9,0.6c1.6,6.6,8.4,7.1,8.8,7.1c0.1-1.4,0.1-2.8,0.2-4.1l0,0c0-0.3,0.3-0.6,0.7-0.6
					c0.4,0,0.6,0.3,0.6,0.7c-0.2,8-0.4,16-0.7,23.9c0.1,0,0.2,0,0.3,0.1c0,0,2.6,1.4,5.5,0.5c2.1-0.6,3.8-2.3,5.2-4.9
					c0.2-0.4,0.7-0.5,1-0.3c0.4,0.2,0.5,0.7,0.3,1c-1.5,3-3.6,4.9-6.1,5.7c-1.1,0.3-2.1,0.4-3,0.4c-1.6-0.1-2.8-0.5-3.4-0.8
					c-0.1,3-0.2,6-0.4,9.1"/>
			</g>
			<path class="st9" d="M-185.6,108.8c0,0,380.8-35.3,413.4-47.4C263.1,48.2,70.5,34-187.5,38.8L-185.6,108.8z"/>
			<g class="st4">
				<path class="st10" d="M-72.9,116.7c-1.2,8.7-5.9,17.1-2.2,25.1c5.4,11.7,21.5,13.9,29.6,23.8c12.8,15.8,7.1,37.3-0.8,54
					c-1.8,3.7-3.7,7.6-3.7,11.7c0,6.8,5.2,12.4,9.7,17.6c10.4,12.1,18.7,27.7,16,43.5c-2.4,13.9-13.3,25.3-26.2,31.1
					c-12.9,5.8-27.5,6.7-41.6,5.7c-21.4-1.5-44.9-9-54.9-28.1c-7.1-13.6-5.2-31.4,4.7-43.2c3.6-4.3,8.3-7.9,10.8-13
					c10.6-20.8-20.2-45.7-10-66.8c5-10.4,18.3-14.7,23.7-25c4-7.6,2.8-16.9,0.6-25.3c-3-11.5-5.2-33.2,5.3-42.1
					C-94.8,71.2-70.6,99.8-72.9,116.7z"/>
				<path class="st11" d="M-44.8,274.4c-0.5-0.2-1.1,0-1.3,0.5c-7.1,16.7-28.7,19.3-36.3,19.7c-0.1-5.4-0.2-10.7-0.4-16.1
					c-0.4-10-0.9-20.1-1.5-30.1c-0.7-11.9-1.6-23.8-2.7-35.6c3.6-0.5,26.6-4.4,31.3-26.4c0.1-0.6-0.2-1.1-0.8-1.2
					c-0.6-0.1-1.1,0.2-1.2,0.8c-4.4,20.5-26,24.3-29.5,24.8c-0.6-7.4-1.3-14.9-2.1-22.3c-2-20-4.2-39.9-6.8-59.8
					c0-0.3-0.3-0.5-0.6-0.4c-0.3,0-0.5,0.3-0.4,0.6c1.5,13.6,2.8,27.3,4,40.9c0,0,0,0-0.1,0c-0.1,0-10.9,1.6-21.4-7.1
					c-0.4-0.4-1.1-0.3-1.4,0.1c-0.4,0.4-0.3,1.1,0.1,1.4c8.1,6.8,16.3,7.8,20.4,7.8c1.4,0,2.3-0.1,2.5-0.1
					c0.5,5.6,0.9,11.3,1.4,16.9c1.5,20,2.8,40,3.6,60c0.2,5.2,0.4,10.3,0.5,15.5c-5.5,0.7-21.4,1.8-32.6-8.5
					c-0.4-0.4-1.1-0.4-1.4,0.1c-0.4,0.4-0.4,1.1,0.1,1.4c8.5,7.9,19.4,9.5,27,9.5c2.9,0,5.3-0.2,7-0.5c0.1,4.1,0.2,8.3,0.3,12.4
					c0.1,10,0.1,20-0.2,30c-0.3,10-0.8,19.9-1.9,29.8l-0.4,3.7l-0.5,3.7l-0.5,3.7l-0.7,3.6c-0.8,4.9-2.1,9.6-3.6,14.1l-0.1,0.2
					c0,0,0,0,0,0c-0.5,1.6,0.4,3.3,2,3.8c1.6,0.5,3.3-0.4,3.8-2c1.5-5,2.8-10.1,3.5-15.1l0.6-3.8l0.5-3.8l0.4-3.8l0.3-3.8
					c0.9-10.1,1.2-20.2,1.3-30.2c0-4,0-8-0.1-12c3.1-0.1,8.3-0.6,14.1-2.2c11.9-3.3,20.2-9.8,24-18.8
					C-44,275.2-44.2,274.6-44.8,274.4z"/>
			</g>
			<g class="st4">
				<path class="st11" d="M43.8,253.3c-3.9-9-10.9-16.9-11.9-26.6c-1-9.7,4.2-18.8,6.6-28.3c3.2-12.6,1.1-26.5-5.6-37.6
					c-1.9-3.1-4.2-6-6.7-8.7c-13.1-13.4-35.1-13.4-48.2,0c-2.6,2.6-4.8,5.5-6.7,8.7c-6.7,11.1-8.8,25-5.6,37.6
					c2.4,9.5,7.6,18.6,6.6,28.3c-1,9.7-8,17.6-11.9,26.6c-5.8,13.3-4.1,29.6,4.2,41.5c8.3,11.9,23,19.1,37.5,18.2
					c14.5,0.8,29.2-6.3,37.5-18.2C47.9,282.9,49.5,266.7,43.8,253.3z"/>
				<path class="st8" d="M36.1,258.9c-0.3-0.2-0.7-0.1-0.8,0.2c-8.4,13.3-22.9,12.8-27,12.4c0-5.6-0.1-11.2-0.2-16.8
					c-0.3-14.1-0.9-28.2-1.8-42.3c4.2-0.9,22.9-5.7,25.2-21.9c0-0.3-0.2-0.6-0.5-0.7c-0.3,0-0.6,0.2-0.7,0.5
					c-2.1,15.2-19.7,19.9-24,20.8c0-0.4,0-0.8-0.1-1.2c-0.9-14.9-2-29.8-3.5-44.7c0-0.3-0.3-0.6-0.7-0.6c-0.3,0-0.6,0.3-0.6,0.7
					c0.6,7.6,1.2,15.2,1.7,22.8c-3.9-0.6-19.8-3.7-25.1-14.7c-0.1-0.3-0.5-0.4-0.8-0.3c-0.3,0.1-0.4,0.5-0.3,0.8
					C-17.3,186-0.4,189,3.2,189.5c0.4,6.9,0.8,13.7,1.2,20.6c0.5,10.4,0.9,20.8,1.1,31.2c-3.5,0.3-15.8,0.4-25.1-10.9
					c-0.2-0.3-0.6-0.3-0.9-0.1c-0.3,0.2-0.3,0.6-0.1,0.9c8.2,10,18.6,11.4,23.9,11.4c0.9,0,1.6,0,2.2-0.1c0.1,4.1,0.2,8.2,0.2,12.3
					c0.1,13.3-0.1,26.5-0.8,39.8c-5.4,0.5-26.6,1.1-34.5-18.4c-0.1-0.3-0.5-0.5-0.8-0.3c-0.3,0.1-0.5,0.5-0.3,0.8
					c7,17,23.5,19.3,32,19.3c1.5,0,2.7-0.1,3.6-0.1c-0.1,1.2-0.1,2.4-0.2,3.7c-0.5,7.4-1.3,14.8-2.4,22.1
					c-1.2,7.3-2.7,14.6-5.6,21.1l0,0.1c0,0,0,0,0,0c-0.4,0.9,0,1.9,0.9,2.3s1.9,0,2.3-0.9c3.1-7.2,4.5-14.7,5.6-22.1
					c1.1-7.5,1.7-14.9,2.2-22.4c0.5-9,0.7-17.9,0.7-26.9c0.8,0.1,1.8,0.1,3.1,0.1c6.3,0,17.8-1.7,25-13.1
					C36.5,259.5,36.4,259.1,36.1,258.9z"/>
			</g>
			<path class="st9" d="M662.4,49.2c0,0-310.7,5.9-372.7,16.9S384.8,90.9,411,94.1c26.2,3.2-179.4-0.4-216.3,15
				c-39.9,16.6,177.9,34.5,469.9,28.5L662.4,49.2z"/>
			<g class="st4">
				<path class="st12" d="M589.9,94.3c14.8-6,34.1,0.9,40.2,15.6c3.2,7.8,3,17.1,7.3,24.4c4.9,8.2,14.4,14.3,20.9,21.2
					c11.1,11.6,16.4,27.2,14.7,43.2c-1.9,17.8-18.2,30.6-18.3,48.2c-0.1,11.9,12.1,18.6,17.7,27.8c22.6,37.5-34.8,71-65.2,75.3
					c-32.5,4.6-86.9-14.6-78.2-56c3-14.3,16.5-24,19-38.5c3.3-19.1-16.2-28.8-21.1-45.1c-10.5-35.2,27-44.5,36.1-70.7
					C569.2,122.2,569.5,102.5,589.9,94.3z"/>
				<path class="st11" d="M648.7,281.4c-0.5-0.2-1.1,0.1-1.3,0.6c-8.1,21.2-36.2,24.8-45,25.4c-1.1-14-1.7-28-2.1-42
					c-0.6-19.3-0.7-38.5-0.5-57.8c0.1,0,0.3,0,0.7,0c5.5,0,38.2-1.3,44.2-32.2c0.1-0.5-0.2-1-0.8-1.1c-0.5-0.1-1,0.2-1.1,0.8
					c-2.6,13.4-10.6,22.6-23.7,27.4c-9.9,3.6-19.2,3.2-19.3,3.2c0,0,0,0,0,0c0-2.1,0-4.1,0.1-6.2c0.1-9.4,0.3-18.8,0.6-28.2
					c0.2-0.2,0.3-0.5,0.3-0.8c0-0.2-0.1-0.4-0.3-0.6c0.3-12.2,0.8-24.3,1.4-36.5c0-0.3-0.2-0.5-0.5-0.5c-0.3,0-0.5,0.2-0.5,0.4
					c-0.9,12.1-1.6,24.2-2.3,36.3c-5,0.1-25.5-0.2-28.9-13.7c-0.1-0.5-0.7-0.8-1.2-0.7c-0.5,0.1-0.8,0.7-0.7,1.2
					c1.8,7,7.9,11.9,17.8,14c4.6,1,9,1.2,11.6,1.2c0.5,0,0.9,0,1.3,0c-0.5,9.3-0.9,18.5-1.3,27.8c-0.7,17.8-1.1,35.6-1.2,53.4
					c-8.3-1.8-31.9-8.8-34.8-28.2c-0.1-0.5-0.6-0.9-1.1-0.8c-0.5,0.1-0.9,0.6-0.8,1.1c3.2,20.9,28.5,28.1,36.7,29.9
					c0,3.6,0,7.2,0,10.7c0.1,20,0.7,40.1,2.3,60.1c-9.9-1.6-40.2-8.2-46.8-30.5c-0.2-0.5-0.7-0.8-1.2-0.7c-0.5,0.2-0.8,0.7-0.7,1.2
					c3.4,11.6,13.5,20.8,29,26.8c8.1,3.1,15.9,4.6,19.8,5.2c0.1,1.4,0.2,2.7,0.3,4.1c1,11,2.4,22.1,4.6,33c1.1,5.5,2.4,11,4.3,16.4
					c1.9,5.4,4.1,10.8,7.9,15.8c0,0,0.1,0.1,0.1,0.1c1.3,1.6,3.7,1.8,5.3,0.5c1.6-1.3,1.8-3.7,0.5-5.3l-0.1-0.1
					c-1.5-1.8-2.8-4-4-6.2c-1.1-2.3-2.2-4.7-3.1-7.2c-1.8-5-3.2-10.2-4.4-15.4c-2.4-10.6-4-21.4-5.3-32.2
					c-0.8-7.2-1.5-14.5-2.1-21.7c9.2-0.7,38.2-4.5,46.7-26.7C649.4,282.1,649.2,281.6,648.7,281.4z"/>
			</g>
			<g class="st4">
				<path class="st13" d="M475.6,181.6c-1.7,9.3-5.3,17.7-15.2,20.6c-4,1.2-8.3,1.2-12,2.9c-6.2,2.8-9.6,9.9-10.1,16.7
					c-0.7,11.4,5.7,21.9,4.3,33.4c-1.8,14.7-15.9,25.2-19.3,39.7c-2.9,12.5,2.7,25.6,11,35.4c13.2,15.6,33.3,25,53.7,25.1
					c19.9,0.1,43.6-10.6,55.7-26.7c19.3-25.8-12.6-43.6-4.1-69.6c5.7-17.5,17.3-30.4-0.4-44.8c-11.8-9.5-26.7-11.8-29.1-29.5
					c-1.8-13-0.1-27.4-11.4-36.6c-14.5-11.8-19.5,0.1-21.1,13.9C476.9,168,476.8,175,475.6,181.6z"/>
				<path class="st14" d="M483.7,322.9c-1.5,0-38.6-0.3-43.9-27c-0.1-0.5,0.2-1,0.7-1.1c0.5-0.1,1,0.2,1.1,0.7
					c5.1,25.2,40.8,25.5,42.1,25.5c0,0,0,0,0,0c0,0,0.1,0,0.1,0c0.3-11,0.9-22,1.6-33c0-0.7,0.1-1.3,0.1-2c-0.2-0.2-0.3-0.5-0.2-0.8
					c0-0.2,0.2-0.4,0.3-0.5c0.8-12.1,1.8-24.2,2.9-36.2c0,0-0.1,0-0.1,0c-0.3-0.1-7.5-1.5-15.6-5.3c-10.7-5-17.6-11.8-19.9-19.6
					c-0.1-0.5,0.1-1,0.6-1.1c0.5-0.1,1,0.1,1.1,0.6c5.1,17.1,32.3,23.2,34,23.6c0.2-1.9,0.3-3.9,0.5-5.8c1.5-15.7,3.1-31.3,5-47
					c0-0.2,0.3-0.4,0.5-0.4c0.3,0,0.4,0.3,0.4,0.5c-1,10-2,20-2.9,30.1c0,0,0.1,0,0.1,0c0.3,0.1,26,5.3,34-6.4
					c0.3-0.4,0.9-0.5,1.3-0.2c0.4,0.3,0.5,0.9,0.2,1.3c-3.6,5.4-10.8,8.2-21.3,8.4c-0.4,0-0.9,0-1.3,0c-6.7,0-12.2-1.1-13.1-1.2
					c-0.4,5-0.9,10.1-1.3,15.1c-1.2,14.6-2.1,29.1-2.9,43.7c5.8,0.9,27.9,3.2,38.4-10.2c0.3-0.4,0.9-0.5,1.3-0.2
					c0.4,0.3,0.5,0.9,0.2,1.3c-5.3,6.8-14.2,10.8-25.8,11.6c-1.5,0.1-2.9,0.1-4.3,0.1c-4.4,0-8-0.4-10-0.7c0,0.5-0.1,1-0.1,1.5
					c-0.8,15.7-1.3,31.4-1.2,47.1c0,0.9,0,1.9,0,2.8c7.7,0.3,38-0.4,46.8-25.9c0.2-0.5,0.7-0.7,1.2-0.6c0.5,0.2,0.7,0.7,0.6,1.2
					c-8.6,24.8-36.2,27.2-46.6,27.2c-0.7,0-1.4,0-1.9,0c0.1,6.3,0.4,12.6,0.9,18.8c0.3,3.9,0.8,7.8,1.4,11.6c0.7,3.8,1.5,7.6,3,10.9
					l0,0.1c0,0,0,0,0,0c0.4,0.9,0,2-0.9,2.4c-0.9,0.4-2,0-2.4-0.9c-1.7-3.9-2.5-7.9-3.2-11.8c-0.6-4-1-7.9-1.3-11.9
					c-0.5-7.9-0.7-15.8-0.6-23.7C483.6,331.2,483.6,327,483.7,322.9C483.7,322.9,483.7,322.9,483.7,322.9
					C483.7,322.9,483.7,322.9,483.7,322.9z"/>
			</g>
			<g class="st4">
				<path class="st11" d="M364,311.8c3.3-7.6,9.3-14.4,10.1-22.6c0.8-8.2-3.6-16-5.6-24c-2.7-10.7-0.9-22.5,4.8-32
					c1.6-2.7,3.5-5.1,5.7-7.4c11.1-11.4,29.8-11.4,41,0c2.2,2.2,4.1,4.7,5.7,7.4c5.7,9.5,7.5,21.3,4.8,32c-2,8-6.5,15.8-5.6,24
					c0.8,8.3,6.8,15,10.1,22.6c4.9,11.3,3.5,25.2-3.6,35.3c-7.1,10.1-19.6,16.2-31.9,15.5c-12.3,0.7-24.8-5.4-31.9-15.5
					C360.5,337,359.1,323.2,364,311.8z"/>
				<path class="st8" d="M370.6,316.6c0.2-0.2,0.6-0.1,0.7,0.2c7.2,11.3,19.5,10.9,23,10.5c0-4.8,0-9.5,0.1-14.3
					c0.3-12,0.8-24,1.5-36c-3.5-0.7-19.5-4.8-21.4-18.6c0-0.3,0.2-0.5,0.4-0.6c0.3,0,0.5,0.2,0.6,0.4c1.8,13,16.8,16.9,20.4,17.7
					c0-0.3,0-0.7,0.1-1c0.8-12.7,1.7-25.4,3-38c0-0.3,0.3-0.5,0.6-0.5c0.3,0,0.5,0.3,0.5,0.6c-0.5,6.5-1,12.9-1.4,19.4
					c3.3-0.5,16.8-3.1,21.3-12.5c0.1-0.3,0.4-0.4,0.7-0.2c0.3,0.1,0.4,0.4,0.2,0.7c-4.9,10.1-19.3,12.7-22.3,13.1
					c-0.4,5.8-0.7,11.7-1,17.5c-0.4,8.8-0.8,17.7-1,26.6c3,0.3,13.5,0.4,21.3-9.2c0.2-0.2,0.5-0.3,0.7-0.1c0.2,0.2,0.3,0.5,0.1,0.7
					c-6.9,8.5-15.8,9.7-20.3,9.7c-0.7,0-1.4,0-1.8-0.1c-0.1,3.5-0.1,7-0.2,10.4c-0.1,11.3,0.1,22.6,0.7,33.8
					c4.6,0.4,22.6,0.9,29.4-15.6c0.1-0.3,0.4-0.4,0.7-0.3c0.3,0.1,0.4,0.4,0.3,0.7c-5.9,14.5-20,16.4-27.2,16.4
					c-1.3,0-2.3-0.1-3.1-0.1c0.1,1,0.1,2.1,0.2,3.1c0.5,6.3,1.1,12.6,2,18.8c1,6.2,2.3,12.4,4.8,18l0,0.1c0,0,0,0,0,0
					c0.3,0.7,0,1.6-0.8,1.9c-0.7,0.3-1.6,0-1.9-0.8c-2.6-6.1-3.8-12.5-4.8-18.8c-0.9-6.3-1.5-12.7-1.8-19.1
					c-0.4-7.6-0.6-15.3-0.6-22.9c-0.6,0.1-1.5,0.1-2.6,0.1c-5.3,0-15.1-1.5-21.3-11.1C370.3,317.1,370.3,316.7,370.6,316.6z"/>
			</g>
			<path class="st15" d="M433.7,365.3c-108.5,19.4-131.4,19.4-301.8-26c-167.8-44.7-281,14.4-281,14.4v165.6h798.7V373.1
				C649.6,373.1,547.9,344.9,433.7,365.3z"/>
			<g class="st4">
				<path class="st16" d="M251,198c0,0-2.8-1.8-3.9-4.5c-1.1-2.7-1.4-4.6-1.4-4.6s0.8-0.5,1.6,0.4c0.8,0.9,1.7,2.9,2.2,2.9
					c0.5,0,0-3.2-0.8-5.5c-0.9-2.2-2-4.2-1.4-4.5c0.6-0.4,2.6,2.6,3.2,3.9c0.1-0.9-1.4-5.2-0.8-5.6c0,0,4.6,1.6,5.7,4.3
					c1.1,2.7,0.7,11.3-0.6,13C253.3,199.6,251,198,251,198z"/>
				<path class="st17" d="M363.8,376c1,0.4,4.8,1.6,6.1,3.7c1.3,2.1-5.6,12-8.1,13.3c-2.5,1.3-11,2-9.4,0c1.6-2,5.1-2.3,5.9-3.6
					c0.8-1.3,1.9-6,0-8.8C356.6,377.9,360.5,374.7,363.8,376z"/>
				<path class="st17" d="M298,385.8c0,0,1.9,9.4,2.1,11.3c0.2,1.9-19,2.2-21.6,1.9c-2.6-0.4,4.2-4.2,9.3-5.7c5-1.5,5-7.5,5-7.5H298
					z"/>
				<path class="st7" d="M350.2,355.8c-2.2-3.4-4.4-6.8-6.3-10.2c-0.5-0.8-1-1.7-1.4-2.5c-0.4-0.8-0.9-1.6-1.1-2.3l-0.2-0.5
					c-0.1-0.2-0.2-0.4-0.1-0.4c0-0.2,0-0.3-0.1-0.5l-0.2-2.2c-0.3-3.6-0.4-7.8-0.5-11.8c-0.1-4.1-0.1-8.2-0.1-12.3
					c0-8.2,0.1-16.5,0.3-24.7l-24.4,1.5l-10-4.3l-7.7,24.2c-2.5,8.1-5.1,16.1-7.5,24.5c-0.3,1.1-0.6,2.1-0.9,3.5
					c-0.3,1.1-0.7,3.6-0.7,4.5l-0.1,1.8l0,1.7c0,1.2,0,2.2,0,3.3c0.1,4.4,0.3,8.6,0.6,12.9c0.5,8.5,1.1,16.9,1.8,25.4l7.6,0
					c0.8-8.4,1.8-16.7,2.8-25c0.5-4.1,1.1-8.3,1.7-12.3c0.2-1,0.3-2,0.5-3l0.3-1.4c0.1-0.5,0.2-0.9,0.3-1.3l0.2-0.6
					c0.1-0.2,0.1-0.2,0.1-0.3c0-0.1,0.1-0.2,0.1-0.3l0.2-0.5l1.2-2.5c3.6-7.3,7.6-14.8,11.5-22.2l1.5-2.8c0.6,3.9,1.3,7.9,2,11.9
					c0.8,4.2,1.5,8.3,2.6,12.8l0.2,0.9l0.1,0.4l0.2,0.5l0.6,2.1c0.3,0.8,0.7,1.6,1.1,2.4c0.2,0.4,0.4,0.7,0.5,1l0.5,0.8
					c0.7,1.2,1.4,2.1,2.1,3c0.7,1,1.4,1.8,2.1,2.7c2.8,3.4,5.6,6.6,8.5,9.7c5.7,6.2,11.5,12.2,17.5,18.1l6.5-5.6
					C359.5,369.4,354.7,362.6,350.2,355.8z"/>
				<path class="st16" d="M302.9,194.9c0,0,0.9-6.7,7.7-7.6c6.8-0.9,11.1,1.2,12.6,6.4c1.5,5.2,0.3,13-5.6,16.4
					c-5.9,3.3-10.8,3.8-12.7,3.6c-2-0.2-1.8-7-2-8.2c0,0-2.3,0.8-2.9-0.5C299.4,203.8,303.2,199.4,302.9,194.9z"/>
				<path class="st12" d="M335.1,248.3c-0.7-16.2-7.3-26.4-13.9-29.4c-4.7-2.1-10.4-0.2-13.8,1.7c0,0,0,0,0,0
					c-3.1-0.1-6.2-0.3-9.3-0.5c-3.1-0.2-6.2-0.4-9.1-0.8c-1.5-0.2-3-0.3-4.3-0.6c-0.7-0.1-1.3-0.2-1.8-0.3l-0.4-0.1l-0.2,0
					c-0.2,0-0.1,0-0.4-0.1c-0.8-0.4-2.1-1.2-3.2-2c-1.2-0.9-2.4-1.8-3.5-2.8c-2.4-1.9-4.7-4-7-6.1c-4.7-4.2-8-8-12.5-12.4l-3.8,3.5
					c3.7,5.2,6.1,9.5,10,14.6c1.9,2.6,3.9,5.1,6,7.6c1.1,1.3,2.1,2.5,3.3,3.8c1.2,1.3,2.3,2.5,4.2,3.9c0.4,0.3,1.1,0.8,1.7,1.1
					l0.9,0.4l0.7,0.3c1,0.4,1.8,0.7,2.7,1.1c1.7,0.6,3.3,1.1,4.9,1.6c3.2,1,6.3,1.8,9.5,2.6c1.5,0.4,2.9,0.7,4.4,1.1
					c-0.4,7.3,1,15.2,1,21.3c0,10.5-2.6,33,1.6,38.3c10.6,3.3,38.9,0.7,39.3-4.3C341,284.2,335.7,264.4,335.1,248.3z"/>
				<path class="st16" d="M317.7,208.5c-0.1,1-0.7,6.6,1.8,10.7c-0.1,1.3-6,6.6-10.6,6c-4.6-0.5,0-5.5,2.2-6.3
					c2.2-0.8,0.6-7.9,0.6-8.8S317.7,208.5,317.7,208.5z"/>
				<path class="st10" d="M300.8,192.2c2.4,2.7,5.6,4.1,9.6,3.5c1.9,0,3.9,0.9,2.2,5.7c-1.6,4.9,0.9,2,3.5-1.1
					c2.6-3.1,5.4-0.5,3.2,2.4c-2.2,2.9-3.2,4.9-0.8,6.7c2.4,1.8,5.7-3.1,7.1-6.1c1.5-3,4.1-10.7-1.2-14c-1.5-2.6-5.4-3.8-8.1-4.5
					c-3.1-0.8-6.3-1-9.4-1.1c-3-0.1-5.9-0.4-8.9-0.4c-1.7,0-0.1,4,0.1,4.7C298.8,189.6,299.7,191,300.8,192.2z"/>
				<path class="st18" d="M301.8,220.3c-3.8,3.5-10.5,8.9-14.6,8.6c-5.2-0.4-18.2-7.1-18.5-7.2c0.8,0.9,1.6,1.8,2.4,2.7
					c1.2,1.3,2.3,2.5,4.2,3.9c0.4,0.3,1.1,0.8,1.7,1.1l0.9,0.4l0.7,0.3c1,0.4,1.8,0.7,2.7,1.1c1.7,0.6,3.3,1.1,4.9,1.6
					c3.2,1,6.3,1.8,9.5,2.6c1.5,0.4,2.9,0.7,4.4,1.1c0,0,1.8-10.6,7.4-15.9c0,0,0,0,0,0C305.5,220.5,303.7,220.4,301.8,220.3z"/>
				<path class="st18" d="M342,291.8c-1-7.6-6.3-27.4-6.9-43.6c-0.1-2.1-0.3-4-0.5-5.9c-3.8-1.6-8.7-3-10.7-1c0,0,7.3,16.8,9.2,29.4
					c1.7,11.6-16.2,20-31.6,22.4c0.3,1.2,0.8,2.2,1.3,2.9C313.3,299.4,341.7,296.8,342,291.8z"/>
				<path class="st16" d="M350.8,284.9c0,0-1.7,2.8-1.5,5.7c0.2,2.8,0.7,4.7,0.7,4.7s0.9,0.1,1.2-1c0.3-1.1,0.3-3.3,0.7-3.5
					c0.4-0.2,1.4,2.8,1.6,5.2c0.2,2.4,0,4.6,0.7,4.6c0.7,0.1,1.2-3.4,1.2-4.8c0.5,0.7,1,5.2,1.7,5.3c0,0,3.4-3.4,3.3-6.3
					c-0.1-2.9-4.2-10.3-6.1-11.3S350.8,284.9,350.8,284.9z"/>
				<path class="st12" d="M352.8,266.3c-0.5-3.1-1-6.3-1.6-9.5c-0.6-3.2-1.2-6.3-2.3-9.8c-0.2-0.5-0.3-0.9-0.5-1.4
					c-0.1-0.3-0.2-0.5-0.3-0.8l-0.5-0.9c-0.7-1.3-1.4-2.1-2-2.9c-1.3-1.6-2.4-2.8-3.6-4c-2.4-2.4-4.8-4.7-7.2-6.8
					c-2.5-2.2-4.9-4.3-7.4-6.4c-3.9-3.3-9.8-2.4-12.6,1.9l-0.1,0.2c-2.7,4.1-1.3,9.7,3,12.1c2.7,1.5,5.4,3,8,4.6
					c2.6,1.6,5.2,3.2,7.6,4.8c1.2,0.8,2.3,1.7,3.2,2.4c0.5,0.4,0.8,0.7,0.9,0.7c0.1,0.1,0.5,0.6,0.8,1.1c1.2,2.3,2.4,5.2,3.5,8.1
					c1.1,2.9,2.1,5.8,3.1,8.7c2,5.9,3.9,11.6,5.7,17.6l4.8-1C354.5,278.6,353.7,272.6,352.8,266.3z"/>
				<path class="st19" d="M325.6,203.4c0.2-0.5,0.5-1.2,0.8-1.9c-3.1-0.3-6.3-8-10.5-8.4c-6,0-15.1-0.9-15.1-0.9
					c2.4,2.7,5.6,4.1,9.6,3.5c1.9,0,3.9,0.9,2.2,5.7c-1.6,4.9,0.9,2,3.5-1.1c2.6-3.1,5.4-0.5,3.2,2.4c-2.2,2.9-3.2,4.9-0.8,6.7
					C320.8,211.3,324.1,206.5,325.6,203.4z"/>
				<path class="st20" d="M324.4,340c3.1-6.2,11.1-15.4,15.9-20.6c0-2.1,0-4.2,0-6.3c0-6.2,0.1-12.4,0.2-18.5
					c-6.9,8.9-20.7,20.8-20.7,20.8c0.6,3.9,1.3,7.9,2,11.9C322.6,331.4,323.3,335.5,324.4,340z"/>
			</g>
			<g class="st4">
				<path class="st11" d="M241,433.9c0,0,19,4.1,29.9-4c10.9-8.1,4.1-20.4-4.9-20.5C257.1,409.2,242.1,422.1,241,433.9z"/>
				<path class="st11" d="M229,431.1c0,0-18.8-4.8-25-17c-6.1-12.1,5.5-20,13.6-16.2C225.7,401.8,233.3,420,229,431.1z"/>
				<path class="st7" d="M272.2,423.9c0-0.2-0.2-0.3-0.4-0.3c-3.8,0.7-7.7-2.1-8.9-3.1c3.5-1.6,5.7-2.2,5.7-2.2
					c0.2,0,0.3-0.2,0.2-0.4c0-0.2-0.2-0.3-0.4-0.2c-0.1,0-2.4,0.7-6.2,2.4c0,0-0.1,0-0.1,0c-1.2,0.5-2.5,1.2-3.9,1.9
					c-0.3-1.1-1.1-4.7,1.1-7.9c0.1-0.1,0.1-0.3-0.1-0.4c-0.1-0.1-0.3-0.1-0.4,0.1c-2.5,3.6-1.5,7.5-1.2,8.5c-2,1.1-4.3,2.5-6.6,4.1
					c0,0,0,0,0,0c0,0,0,0,0,0c-1.1,0.7-2.2,1.5-3.3,2.3c-0.3-0.9-0.9-3.3,0.4-5.9c0.1-0.2,0-0.3-0.1-0.4c-0.2-0.1-0.3,0-0.4,0.1
					c-1.5,3-0.7,5.7-0.3,6.5c-1,0.7-1.9,1.5-2.9,2.3c-0.1,0.1-0.1,0.3,0,0.4c0,0.1,0.1,0.1,0.2,0.1c0.1,0,0.2,0,0.3-0.1
					c2.2-1.8,4.3-3.4,6.3-4.8c0.5,0.8,2.1,2.8,5.8,3.7c0.9,0.2,1.8,0.3,2.9,0.4c0.2,0,0.3-0.1,0.3-0.3c0-0.2-0.1-0.3-0.3-0.3
					c-3.4-0.2-5.5-1.3-6.7-2.1c-0.9-0.7-1.4-1.3-1.6-1.7c4.1-2.8,7.8-4.7,10.7-6.1c0.4,0.3,1.4,1.2,2.9,2c1.1,0.6,2.3,1.1,3.3,1.3
					c1.2,0.3,2.4,0.3,3.4,0.2C272.1,424.2,272.2,424,272.2,423.9z"/>
				<path class="st7" d="M227.5,428.6c-1.5-3.4-3-6.4-4.6-9.1c0.8-0.6,3-3.2,2.1-9.3c0-0.2-0.2-0.3-0.4-0.3c-0.2,0-0.3,0.2-0.3,0.4
					c0.9,5.5-1.1,7.9-1.8,8.6c-1.1-1.8-2.1-3.4-3.2-4.9c0,0,0-0.1-0.1-0.1c-1.3-1.8-2.5-3.4-3.5-4.6c0.6-0.8,2.8-4.3,1.5-8.9
					c0-0.2-0.2-0.3-0.4-0.2c-0.2,0-0.3,0.2-0.2,0.4c1.2,4.1-0.6,7.2-1.3,8.2c-1.9-2.3-3.2-3.5-3.3-3.5c-0.1-0.1-0.3-0.1-0.4,0
					c-0.1,0.1-0.1,0.3,0,0.4c0.1,0,3.1,2.8,6.8,8.1c-1.6,0.1-6.3,0.3-10.6-1.9c-0.2-0.1-0.3,0-0.4,0.1c-0.1,0.2,0,0.3,0.1,0.4
					c1.3,0.7,2.7,1.1,4,1.4c3.5,0.8,6.5,0.5,7.3,0.5c1.9,2.7,3.9,6,5.9,10c-0.3,0.2-1,0.6-2.1,0.6c-1.4,0.1-3.8-0.4-7-3
					c-0.1-0.1-0.3-0.1-0.4,0c-0.1,0.1-0.1,0.3,0,0.4c2.2,1.8,4,2.6,5.5,3c2.2,0.5,3.6-0.1,4.2-0.5c0.6,1.2,1.2,2.5,1.8,3.8
					c0,0.1,0.1,0.2,0.2,0.2c0.1,0,0.1,0,0.2,0C227.5,429,227.6,428.8,227.5,428.6z"/>
				<path class="st11" d="M252.9,387.1c-3.4-4.1-8.6-5.3-13.5-3.2c-6.6,2.8-13.2,10.2-13.9,22.8c-0.9,17.6,9.5,25.8,9.5,25.8
					s13-2.6,20-18.8C260.2,402.1,257.5,392.5,252.9,387.1z"/>
				<path class="st7" d="M253.4,398.9c-0.1-0.1-0.3,0-0.4,0.1c-3.6,6.6-11.9,9.4-14,10.1c0.5-1.8,1-3.6,1.4-5.2
					c2.3-7.8,4.7-13.7,4.7-13.8c0.1-0.2,0-0.3-0.2-0.4c-0.2-0.1-0.3,0-0.4,0.2c0,0.1-1.4,3.5-3.1,8.6c-1.1-0.5-4.9-2.5-5.6-7.6
					c0-0.2-0.2-0.3-0.3-0.3c-0.2,0-0.3,0.2-0.3,0.3c0.8,5.4,5,7.6,6.1,8.1c-1.8,5.7-4,13.2-5.1,20.4c-1.6-1.2-7.8-6.3-7.6-12.6
					c0-0.2-0.1-0.3-0.3-0.3c-0.2,0-0.3,0.1-0.3,0.3c-0.1,3.1,1.3,6.4,4.1,9.6c1.8,2,3.5,3.3,4.1,3.7c-0.5,3.2-0.7,6.4-0.6,9.2
					c0,0.1,0.1,0.3,0.2,0.3c0,0,0.1,0,0.1,0c0.2,0,0.3-0.2,0.3-0.3c-0.3-6,1-13.2,2.6-19.5c1.3-0.4,10.8-3.2,14.7-10.5
					C253.6,399.2,253.6,399,253.4,398.9z"/>
			</g>
			<g class="st4">
				<path class="st21" d="M107.8,378.9c-1.6-1.5-2.8-4.4-3.2-6.5c-0.8-4.4,2.3-8.2,4.8-11.4c3.3-4.2,4.7-12.2,11-13.1
					c4.9-0.7,4.9,6.4,4.9,9.6c0,4.5-0.4,9.2-0.8,13.7c-0.3,3.6-1.5,8.2-5.1,10.1C115.8,383.3,110.7,381.6,107.8,378.9z"/>
				<path class="st21" d="M79.6,370.9c-2-0.2-4.5-1.6-6-2.9c-3.1-2.7-3-7.2-2.9-11c0.1-4.9-3.5-11.5,0.5-15.7c3.2-3.3,7.2,1.8,9,4.1
					c2.5,3.2,5,6.9,7.2,10.3c1.8,2.8,3.6,6.8,2,10.2C87.9,369.5,83.3,371.2,79.6,370.9z"/>
				<path class="st21" d="M93.8,359.8c-0.2-0.1-0.4-0.2-0.6-0.4c-5.5-3.6-5.9-9.8-4-15.6c1.6-5,2.3-10.2,3.1-15.3
					c0.3-2.1,0.6-4.4,1.9-6.1c2.7-3.7,6.9-2,9.1,0.9c1.9,2.5,3,5.6,3.8,8.6c1.2,4.9,2.1,10.1,2.9,15.1c0.6,4.1,0.6,9.4-2.8,12.4
					C103.4,362.6,97.9,362.1,93.8,359.8z"/>
				<path class="st10" d="M99.3,366.1l0.3-1.8l0.2-1.8c0.1-1.2,0.3-2.3,0.3-3.5c0.1-1.7,0.2-3.3,0.2-5c1.3-0.5,6.1-2.4,7.7-6
					c0.1-0.1,0-0.3-0.1-0.3c-0.1-0.1-0.3,0-0.3,0.1c-1.4,3.2-5.8,5.1-7.3,5.7c0-0.5,0-1.1,0-1.6l0-1.8c0-0.6,0-1.2-0.1-1.8l-0.3-3.5
					c0-0.8-0.1-1.6-0.2-2.3c0.8-0.6,4.7-3.8,5.3-7.3c0-0.1-0.1-0.3-0.2-0.3c0,0,0,0,0,0c-0.1,0-0.3,0.1-0.3,0.2
					c-0.5,3-3.8,6-4.9,6.8c0-0.2-0.1-0.4-0.1-0.6l-0.5-3.5c0-0.1-0.1-0.2-0.3-0.2c-0.1,0-0.2,0.1-0.2,0.3l0,0l0.4,3.5
					c0.1,1.2,0.3,2.3,0.3,3.5l0.2,3.3c-1.3-0.6-5.2-2.4-6-5.9c0-0.1-0.2-0.2-0.3-0.2c-0.1,0-0.2,0.2-0.2,0.3
					c0.9,3.9,5.3,5.9,6.5,6.3c0,0.5,0,1,0,1.5l0,1.8c0.1,2.3-0.1,4.7-0.3,7c-0.1,1.2-0.2,2.3-0.4,3.5l-0.2,1.7l-0.3,1.7
					c-0.2,1.2-0.3,2.3-0.6,3.5l-0.7,3.4l-0.9,3.4c-0.3,1.1-0.6,2.2-1,3.4c-1.4,4.5-3,8.9-5.2,13l0,0c0,0,0,0,0,0
					c-0.2,0.4,0,0.8,0.3,1c0.4,0.2,0.8,0,1-0.3c2.1-4.3,3.7-8.8,5-13.3c0.3-1.1,0.7-2.3,0.9-3.4l0.8-3.5l0.7-3.5
					C99,368.5,99.1,367.3,99.3,366.1z"/>
				<path class="st10" d="M84.8,373.7c-0.3-2.6-0.9-5.1-1.6-7.6c0.9-0.5,3.5-2.4,3.5-5.7c0-0.1-0.1-0.2-0.2-0.2
					c-0.1,0-0.2,0.1-0.2,0.2c0,2.9-2.2,4.6-3.1,5.2c-0.1-0.4-0.2-0.8-0.3-1.2l-0.8-2.3c-0.3-0.8-0.6-1.5-0.9-2.2l-0.5-1.1
					c-0.1-0.1-0.1-0.3-0.2-0.4c0.5-0.6,2.5-3.2,1.8-6.5c0-0.1-0.2-0.2-0.3-0.2c-0.1,0-0.2,0.2-0.2,0.3c0.6,2.9-0.9,5.2-1.5,6
					c0-0.1-0.1-0.1-0.1-0.2l-1.1-2.1c-0.1-0.1-0.2-0.2-0.3-0.1c-0.1,0.1-0.2,0.2-0.1,0.3l0,0l1,2.1c0.2,0.4,0.4,0.7,0.5,1.1l0.4,1.1
					c0.2,0.4,0.3,0.9,0.5,1.3c-1,0.2-3.7,0.5-6.5-1.8c-0.1-0.1-0.3-0.1-0.3,0c-0.1,0.1-0.1,0.3,0,0.3c1.6,1.2,3.1,1.7,4.3,1.9
					c1.2,0.2,2.2,0,2.7-0.1c0.1,0.1,0.1,0.3,0.1,0.4l0.7,2.2c0.8,3,1.5,6.1,1.8,9.2c0.4,3.1,0.5,6.3,0.5,9.4c0,3.1-0.2,6.3-0.6,9.3
					l0,0c0,0,0,0,0,0c0,0.4,0.2,0.8,0.6,0.8c0.4,0,0.8-0.2,0.8-0.6c0.4-3.2,0.5-6.4,0.4-9.6C85.5,380,85.3,376.8,84.8,373.7z"/>
				<path class="st10" d="M121.7,371.5c-0.1-0.1-0.3-0.1-0.3,0c-1.8,2-6,2.9-7.7,3.1l0.4-0.8l0.3-0.6c0.1-0.2,0.2-0.4,0.2-0.6
					l0.5-1.1l0.5-1.1l0.2-0.6c0.1-0.2,0.1-0.4,0.2-0.6l0.7-2.3c0.3-0.8,0.4-1.6,0.6-2.4l0.5-2.4c0-0.2-0.1-0.3-0.2-0.4
					c-0.2,0-0.3,0.1-0.4,0.2l0,0l-0.6,2.3c-0.2,0.8-0.4,1.6-0.7,2.3l-0.4,1.2c-0.7-1-2.2-3.6-2-7.1c0-0.1-0.1-0.3-0.2-0.3
					c-0.1,0-0.2,0.1-0.3,0.2c-0.2,4,1.7,6.8,2.3,7.7l-0.2,0.6c-0.1,0.2-0.1,0.4-0.2,0.6l-0.2,0.6l-0.5,1.1l-0.5,1.1
					c-0.1,0.2-0.2,0.4-0.2,0.6l-0.3,0.5l-1.1,2.1c-0.3,0.5-0.6,1-0.9,1.5c-0.8-1.4-2.5-5.2-1.6-9.4c0-0.1-0.1-0.3-0.2-0.3
					c-0.1,0-0.3,0.1-0.3,0.2c-1,4.6,1.1,8.7,1.8,10c0,0,0,0.1-0.1,0.1l-0.6,1l-0.7,1c-0.5,0.7-0.9,1.3-1.4,2l-1.5,1.9l-1.6,1.8
					c-0.5,0.6-1.1,1.2-1.7,1.7c-2.3,2.3-4.7,4.4-7.4,6.1l0,0c0,0,0,0,0,0c-0.3,0.2-0.4,0.7-0.2,1c0.2,0.3,0.7,0.4,1,0.2
					c2.8-1.9,5.2-4.1,7.5-6.5c0.6-0.6,1.1-1.2,1.7-1.8l1.6-1.9l1.5-2c0.5-0.7,0.9-1.4,1.4-2l0.7-1l0.6-1.1c0.4-0.7,0.8-1.4,1.2-2.1
					l0.4-0.8c1.3-0.2,6.2-1.1,8.3-3.3C121.8,371.7,121.8,371.6,121.7,371.5z"/>
			</g>
			<path class="st22" d="M-152.7,404.3c0,0,127.6-62.2,291.6-5.9c164,56.3,365.9,45.8,418.2,49.8c52.3,4,92.5-9.2,92.5-9.2v100.7
				h-798.7L-152.7,404.3z"/>
			<path class="st23" d="M355.2,456.2c-0.8-1.3-2.5-1.7-3.8-0.9l-13.9,8.5l11.3-11.8c1.1-1.1,1-2.8,0-3.9
				c-4.4-4.4-10.1-8.2-17.3-9.8c-1.6-0.4-3.2,0.8-3.4,2.5l-1.7,17l-2.9-17.7c-0.2-1.5-1.6-2.5-3-2.4c-7.8,0.8-13.5,4.3-17.6,8.8
				c-1,1.1-1,2.8,0.1,3.9l12.2,11.8l-14.3-8.1c-1.4-0.8-3.2-0.2-3.9,1.2c-4,8.2-4.8,16.1-4.8,16.1l69.6-1.2
				C361.7,470.3,359.9,463.5,355.2,456.2z"/>
			<path class="st24" d="M123.4,433.5c1.5-1.7,4.1-1.9,5.8-0.5l18.5,15.4l-13.9-19.7c-1.3-1.8-0.9-4.4,0.9-5.7
				c7.4-5.5,16.5-9.7,27.5-10.5c2.5-0.2,4.5,1.9,4.4,4.4l-1.3,25.2l8.1-25.3c0.7-2.1,2.8-3.3,5-2.8c11.2,2.9,18.8,9.3,23.8,16.7
				c1.3,1.8,0.8,4.4-1,5.7L180.8,451l22.7-8.7c2.2-0.9,4.7,0.3,5.4,2.6c4,12.8,3.4,24.6,3.4,24.6l-101.4-16.9
				C110.9,452.6,115,443.2,123.4,433.5z"/>
			<g class="st4">
				<g>
					<path class="st7" d="M-56.5,378.3c0,0,5.3-23.4,26.5-43.2c21.2-19.8,41.5-12.5,43.9,1.8c2.4,14.3-11,21.6-30.8,27
						C-36.7,369.3-56.5,378.3-56.5,378.3z"/>
					<path class="st7" d="M-74.9,400.7c0,0,5-29.7-15.6-53.3c-20.6-23.7-64.4-10.8-53.2,17.9C-137.3,379.3-98.8,378.7-74.9,400.7z"
						/>
					<path class="st7" d="M-68.6,428.6c0,0,11.8-28.9,44.4-44.8c32.7-16,44.7,24,22.7,36.3C-23.4,432.3-40.2,420.7-68.6,428.6z"/>
					<path class="st7" d="M-67.3,353.5c0,0,6-34.5-11.3-52.3c-17.3-17.8-41.5-14.8-45.1,2.6C-127.3,321.2-77.6,336.5-67.3,353.5z"/>
					<path class="st7" d="M-55.7,323.6c-0.8-15.9,11.4-32.6,24-40.8c11.3-7.4,26.4-2.1,29.4,11.5c4.4,20.6-24.2,22.3-37.4,25.6
						C-44.3,321-51.1,324.2-55.7,323.6z"/>
					<path class="st7" d="M-60.9,308.3c0,0,13.4-21.5,8.7-41.9c-4.7-20.3-28.8-25.1-37.1-9.3C-97.6,273-69.6,294-60.9,308.3z"/>
					<path class="st7" d="M-85.5,439.3c0,0-0.2-40-36.5-53.2s-47.7,19-36.3,33.6C-146.9,434.4-118.5,428.7-85.5,439.3z"/>
				</g>
				<path class="st11" d="M-121.9,408.2c0.2-0.3,0.5-0.4,0.8-0.2c16.8,9.1,27.1,19.5,32.8,26.5c4.2,5.2,6.5,9.3,7.6,11.6
					c2.5-6.6,4.5-13.4,6.3-20.3c0.9-3.6,1.7-7.1,2.5-10.7c-1.4-9.3-8.6-41.2-40.3-53.8c-0.3-0.1-0.4-0.5-0.3-0.8
					c0.1-0.3,0.5-0.4,0.8-0.3C-82.3,372-73.6,400-71.2,412c0.5-2.6,1.1-5.3,1.5-7.9c1.3-7.3,2.4-14.7,3.3-22
					c0.7-5.4,1.2-10.8,1.8-16.2c-1.2-6.6-6.8-29.9-27.4-47.2c-0.2-0.2-0.3-0.6-0.1-0.8c0.2-0.2,0.6-0.3,0.8-0.1
					c18,15.1,24.7,34.8,27,44.3c0.7-8.1,1.3-16.2,1.7-24.4c0.7-14.4,1.1-28.9,0.9-43.3c-0.8-9.1-3.5-21.5-11.5-31.2
					c-0.2-0.3-0.2-0.6,0.1-0.8c0.2-0.2,0.6-0.2,0.8,0.1c14.8,18,11.8,44.7,11.8,45c0,0.1-0.1,0.2-0.1,0.3c0,8.4-0.1,16.7-0.3,25.1
					c3.3-7.3,12.5-24.5,29.5-29.6c0.3-0.1,0.6,0.1,0.7,0.4c0.1,0.3-0.1,0.6-0.4,0.7c-19.7,5.9-28.7,28.4-30,31.8c0,0.5,0,1.1,0,1.6
					c-0.5,14.9-1.6,29.8-3.2,44.7c-0.3,2.8-0.7,5.6-1,8.3c6.1-10.8,23.5-36.9,53.5-44.7c0.3-0.1,0.6,0.1,0.7,0.4
					c0.1,0.3-0.1,0.6-0.4,0.7c-32.6,8.4-50.1,38.8-54.2,46.8c-0.5,3.6-1,7.1-1.6,10.7c-1.2,7.4-2.6,14.7-4.4,22
					c-0.6,2.5-1.3,5-1.9,7.4c6.3-8.2,21.9-24.4,48.7-28.4c0.3-0.1,0.6,0.2,0.7,0.5c0,0.3-0.2,0.6-0.5,0.7
					c-29.7,4.4-45.3,23.8-49.8,30.4c-1.1,3.7-2.3,7.3-3.6,10.9c-2.6,7.1-5.7,14-9.8,20.5c0,0,0,0,0,0c-0.5,0.8-1.6,1-2.4,0.5
					c-0.8-0.5-1-1.6-0.5-2.4c3.9-5.9,6.9-12.4,9.5-19c-1.8-3.9-11.9-23.1-40.5-38.6C-122,408.9-122.1,408.5-121.9,408.2z"/>
			</g>
			<g class="st4">
				<g>
					<path class="st12" d="M466.5,399.7c0,0-7.3-22.3-29.8-39.6c-22.5-17.3-41.6-8.4-42.6,5.8c-1,14.2,12.7,20,32.5,23.4
						C446.4,392.7,466.5,399.7,466.5,399.7z"/>
					<path class="st12" d="M486.5,419.8c0,0-7.6-28.4,10.3-53.4s61.7-16.4,53.5,12.5C545.3,393.2,507.8,396.2,486.5,419.8z"/>
					<path class="st12" d="M482.9,447.5c0,0-14.1-27-47.4-39.6c-33.3-12.6-41.4,27.5-18.8,37.4C439.3,455.3,454.6,442.4,482.9,447.5
						z"/>
					<path class="st12" d="M474.8,374.5c0,0-9-33,6.2-52c15.2-18.9,39.1-18.2,44.1-1.6C530.2,337.5,483.2,357,474.8,374.5z"/>
					<path class="st12" d="M460.7,346.5c-0.7-15.5-14.1-30.7-27.1-37.5c-11.7-6.1-25.9,0.4-27.5,13.9c-2.4,20.4,25.7,19.5,38.7,21.5
						C449.4,345,456.3,347.4,460.7,346.5z"/>
					<path class="st12" d="M464.4,331.1c0,0-15-19.7-12.3-40c2.7-20.2,25.8-27.1,35.2-12.4C496.8,293.4,471.6,316.3,464.4,331.1z"/>
					<path class="st12" d="M500.3,456.4c0,0-3.5-38.9,30.6-55.1s48.2,14.1,38.5,29.4C559.7,445.9,531.5,443,500.3,456.4z"/>
				</g>
				<path class="st11" d="M533,422.8c-0.2-0.3-0.5-0.3-0.8-0.2c-15.5,10.4-24.6,21.4-29.5,28.9c-3.6,5.4-5.5,9.7-6.4,12
					c-3-6.2-5.6-12.6-8-19.2c-1.2-3.4-2.3-6.8-3.4-10.2c0.5-9.2,4.6-40.9,34.3-56.1c0.3-0.1,0.4-0.5,0.2-0.8
					c-0.1-0.3-0.5-0.4-0.8-0.2c-27.6,14.1-33.4,42.2-34.6,54.1c-0.8-2.5-1.5-5-2.2-7.6c-2-7-3.7-14.1-5.3-21.2
					c-1.2-5.2-2.2-10.4-3.2-15.7c0.6-6.5,3.8-29.7,22.3-48.5c0.2-0.2,0.2-0.6,0-0.8c-0.2-0.2-0.6-0.2-0.8,0
					c-16.1,16.4-20.8,36.2-22.2,45.6c-1.5-7.8-2.8-15.7-3.9-23.6c-2-14-3.7-28-4.9-42.1c-0.1-9,1.4-21.2,8.3-31.4
					c0.2-0.3,0.1-0.6-0.2-0.8c-0.3-0.2-0.6-0.1-0.8,0.2c-12.7,18.9-7.4,44.6-7.3,44.9c0,0.1,0.1,0.2,0.2,0.3
					c0.7,8.1,1.6,16.3,2.6,24.4c-3.8-6.8-14.4-22.7-31.5-26.1c-0.3-0.1-0.6,0.1-0.7,0.5c-0.1,0.3,0.1,0.6,0.5,0.7
					c19.7,3.9,30.6,25,32.1,28.2c0.1,0.5,0.1,1.1,0.2,1.6c1.9,14.5,4.3,28.9,7.2,43.2c0.6,2.7,1.1,5.3,1.8,8
					c-6.9-9.9-26.2-33.8-56.2-38.6c-0.3,0-0.6,0.2-0.7,0.5c-0.1,0.3,0.2,0.6,0.5,0.7c32.5,5.2,52.4,33.2,57.1,40.6
					c0.8,3.4,1.6,6.8,2.5,10.2c1.9,7.1,3.9,14.1,6.3,21c0.8,2.4,1.7,4.7,2.6,7.1c-6.9-7.4-23.5-21.8-50.1-23.1
					c-0.3,0-0.6,0.2-0.6,0.5c0,0.3,0.2,0.6,0.5,0.6c29.3,1.5,46.3,19,51.3,25c1.4,3.5,2.9,6.9,4.5,10.3c3.2,6.6,6.8,13.1,11.4,19
					c0,0,0,0,0,0c0.6,0.7,1.7,0.9,2.4,0.3c0.7-0.6,0.9-1.7,0.3-2.4c-4.3-5.4-7.9-11.4-11-17.7c1.4-4,9.5-23.6,35.8-41.3
					C533.1,423.4,533.2,423,533,422.8z"/>
			</g>
			<path class="st25" d="M-149.1,462.7c0,0,71.4-59.2,252.3-24.3c187.8,36.3,227.9,35.3,397.1-9.2c109.9-29,149.3,0,149.3,0v90
				h-798.7V462.7z"/>
			<g class="st4">
				<path class="st10" d="M31.9,444.6c-8-6.8-20.2-7.5-29.5-3.3c10.1-12.3,18.9-25.5,22.3-40.8c4.8-21.6-5.5-48.2-27-53.3
					c-13.2-3.1-27.2,2.5-37.2,11.7c-10,9.1-16.6,21.3-22.5,33.5c-7,14.4-13.4,29.2-19,44.3c0.8-8.5,1.5-17.1-0.7-25.3
					c-2.2-8.2-8.1-15.9-16.4-17.9c-13.8-3.3-26,10.3-30.5,23.8c-5.9,17.6-10.3,58.5-4.2,79c6.1,20.6,22.1,24.6,22.1,24.6H-5.5
					c16.9-4.4,33.4-13.4,42.5-28.3C46,477.5,45.1,455.9,31.9,444.6z"/>
				<path class="st12" d="M16.5,468.4c-1.3,4.3-3.5,8.3-6,12.1c-2.6,3.7-5.5,7.2-8.8,10.4c-0.8,0.8-1.7,1.5-2.5,2.3l-1.3,1.2
					l-1.3,1.1c-0.9,0.7-1.8,1.4-2.7,2.1c-1,0.6-1.9,1.2-2.9,1.8l-1.5,0.8c-0.5,0.3-1,0.5-1.5,0.7c-1,0.5-2.1,1-3.1,1.4
					c-2.1,0.9-4.3,1.5-6.5,2.1c-0.1,0-0.1,0-0.2-0.1c0-0.1,0-0.1,0.1-0.1l0,0c1.9-1.3,3.8-2.4,5.7-3.5c0.9-0.6,1.9-1.2,2.8-1.8
					l1.4-0.9l1.4-0.9c0.9-0.6,1.8-1.2,2.8-1.8c0.9-0.6,1.8-1.3,2.7-1.9l1.4-0.9l1.3-1c0.9-0.7,1.8-1.3,2.6-2.1
					c3.3-2.9,6.4-6.1,9.1-9.6c2.7-3.5,5.1-7.3,6.9-11.4l0,0c0-0.1,0.1-0.1,0.2-0.1C16.5,468.3,16.6,468.3,16.5,468.4z"/>
				<path class="st12" d="M4.1,414.5c-0.1,0-0.1,0-0.2,0l0,0c-1.2,1.7-2.5,3.3-3.9,4.7c-1.5,1.4-3,2.7-4.8,3.8
					c-1.7,1.1-3.5,2-5.3,2.8c-1.9,0.8-3.8,1.4-5.7,2c-3.9,1-7.9,1.4-11.9,1.9c-3.6,0.4-7.3,0.7-11.1,1c3-6.7,6.3-13.4,9.7-19.9
					c5.1-9.8,10.5-19.4,16.5-28.7c0-0.1,0-0.1,0-0.2c-0.1,0-0.1,0-0.2,0c-6.3,9.1-12.1,18.5-17.5,28.2c-5.4,9.7-10.4,19.6-14.8,29.7
					c-3,7-5.9,14.1-8.3,21.5c-1.9-2.8-3.3-5.9-4.4-9.1c-1.2-3.7-2.3-7.5-2.8-11.5c-0.6-4-0.4-8-0.2-12c0.2-2,0.4-4,0.6-6l1-6l0,0
					c0-0.1,0-0.1-0.1-0.2c-0.1,0-0.1,0-0.2,0.1l-1.6,5.9c-0.4,2-0.8,4-1.2,6.1c-0.5,4.1-0.9,8.2-0.6,12.4l0.1,1.6
					c0,0.5,0.1,1,0.2,1.6c0.1,1,0.2,2.1,0.4,3.1c0.2,1,0.4,2.1,0.7,3.1c0.3,1,0.7,2,1.1,3c0.5,0.9,0.9,1.9,1.4,2.8
					c0.6,0.9,1.1,1.8,1.8,2.6c1,1.3,2.1,2.5,3.4,3.5c-0.9,3-1.8,6-2.5,9c-2.6,10.8-4.1,22-3.2,33.1c0,0.1,0.1,0.1,0.1,0.1
					c0.1,0,0.1-0.1,0.1-0.1c0.6-11,2.6-21.8,5.6-32.4c1.4-5.3,3-10.5,4.8-15.7c1.7-5.2,3.6-10.4,5.7-15.5c1.3-3.2,2.6-6.3,4-9.4
					c1.7,0.5,3.5,0.7,5.3,0.9c2.1,0.2,4.2,0.3,6.3,0.2c4.2-0.1,8.4-1.2,12.3-2.5c2-0.7,3.9-1.5,5.8-2.4c1.9-1,3.7-2.1,5.4-3.3
					c1.7-1.3,3.2-2.7,4.6-4.3c1.4-1.6,2.5-3.3,3.5-5.1C4.2,414.6,4.2,414.5,4.1,414.5z"/>
				<path class="st12" d="M-90.2,453c-0.1,0-0.1,0-0.2,0.1l0,0l-0.3,2.2c-0.1,0.7-0.1,1.5-0.3,2.2l-0.5,2.2
					c-0.1,0.4-0.1,0.7-0.3,1.1l-0.4,1c-0.2,0.7-0.5,1.4-0.7,2.1l-1,2c-0.3,0.7-0.7,1.3-1.1,1.9c-0.4,0.6-0.8,1.2-1.2,1.8
					c-1.7,2.3-4,4.1-6.2,5.9c-1.8,1.5-3.8,2.9-5.9,4.2c-0.3-2-0.6-3.9-0.9-5.9c-0.5-3.5-0.8-6.9-0.9-10.4c-0.3-7,0-14,0.7-21
					c0.7-7,1.8-14,3.5-20.8l0,0c0-0.1,0-0.1-0.1-0.2c-0.1,0-0.1,0-0.2,0.1c-2.1,6.8-3.6,13.7-4.6,20.7c-1,7-1.6,14.1-1.6,21.2
					c0,7.1,0.4,14.3,2.1,21.3c1.6,7,4.2,13.7,8.1,19.7c0,0.1,0.1,0.1,0.2,0.1c0.1,0,0.1-0.1,0.1-0.2l0,0c-0.5-1.7-1.3-3.3-1.7-5
					c-0.6-1.7-1.1-3.3-1.5-5c-0.3-0.8-0.4-1.7-0.7-2.5c-0.2-0.8-0.5-1.7-0.6-2.5l-0.6-2.5l-0.5-2.6c-0.2-1.1-0.4-2.3-0.6-3.4
					c1.1-0.2,2.1-0.4,3.1-0.8c0.7-0.2,1.4-0.6,2.2-0.9c0.7-0.4,1.4-0.8,2-1.2c0.6-0.5,1.3-0.9,1.9-1.4c0.6-0.5,1.1-1.1,1.7-1.7
					l1.5-1.8c0.5-0.6,0.9-1.3,1.3-1.9c0.5-0.6,0.8-1.3,1.2-2c0.3-0.7,0.7-1.4,1-2.1l0.8-2.2c0.2-0.7,0.4-1.5,0.6-2.2l0.3-1.1
					c0.1-0.4,0.1-0.8,0.1-1.1l0.3-2.3c0.1-1.5,0-3,0-4.5C-90.1,453.1-90.1,453.1-90.2,453z"/>
			</g>
			<g class="st4">
				<path class="st12" d="M155.2,484.2c0.1-0.7,0.3-1.5,0.4-2.2c0.9-6-0.1-12.5-5.4-15.8c-6.1-3.8-13.8-0.1-19.9-3.8
					c-7.6-4.6-6.2-17.1-12-24c-3.4-4.1-9.4-5.6-14.3-3.6c-1.8,0.8-3.5,2-5.5,2.2c-4,0.4-7-3.7-10.1-6.3c-5.8-4.8-14.6-5.2-20.8-0.9
					c-6.2,4.3-9.3,13-7.4,20.6c0.9,3.4,2.6,6.5,3.5,9.9c0.8,3.4,0.5,7.5-2.2,9.7c-1.3,1.1-3,1.5-4.5,2.2c-5.5,2.8-8.3,9.8-7.9,16.2
					c0.4,6.5,3.2,12.4,6.3,18c7.1,12.9,16.2,26.9,28.6,34.6c15.1,9.3,34-1.3,45.5-12.3C141.9,516.8,151.9,501.5,155.2,484.2z"/>
				<g>
					<path class="st10" d="M141.8,481.2C141.7,481.2,141.7,481.2,141.8,481.2c-2.2,1.5-4.2,3.3-6,5.2c-1.8,1.9-3.5,3.9-5.2,5.9
						c-3.3,4.1-6.1,8.5-9,12.9c-1.8,2.8-3.6,5.7-5.3,8.5c-0.5-2.8-0.8-5.6-0.9-8.4c0-1.5-0.1-3-0.1-4.6c0-1.5,0-3.1,0.1-4.6
						c0.1-3.1,0.4-6.1,0.8-9.2c0.4-3,0.9-6.1,1.4-9.1c0,0,0-0.1-0.1-0.1c0,0-0.1,0-0.1,0.1c-0.8,3-1.4,6-2,9c-0.5,3-1,6.1-1.3,9.2
						c-0.3,3.1-0.5,6.2-0.2,9.3c0.1,1.6,0.4,3.1,0.7,4.6c0.3,1.4,0.8,2.7,1.4,4c-0.9,1.5-1.8,3-2.7,4.5c-2.6,4.5-5.2,9.1-7.6,13.7
						c0,0,0,0.1,0,0.1c0,0,0.1,0,0.1,0c2.6-4.5,5.3-9,8.1-13.4c2.8-4.4,5.6-8.8,8.5-13.1c1.5-2.1,3-4.3,4.5-6.4
						c0.8-1.1,1.5-2.1,2.3-3.1l2.3-3.1C134.9,489.1,138,485,141.8,481.2C141.8,481.3,141.8,481.2,141.8,481.2z"/>
					<path class="st10" d="M90.9,529.9l-0.6-1.6c-0.2-0.5-0.4-1-0.6-1.6l-0.7-1.5l-0.7-1.5l-0.4-0.8l-0.4-0.7
						c-1.3-2.5-2.8-4.9-4.4-7.2c0.2-1.2,0.4-2.4,0.4-3.6c0.1-1.5,0-3,0-4.5c-0.2-3-0.9-5.9-1.5-8.8c-0.7-2.9-1.5-5.8-2.4-8.6
						c-1-2.8-2-5.6-3.2-8.3c0,0-0.1-0.1-0.1,0c0,0-0.1,0.1,0,0.1c1,2.8,1.9,5.6,2.6,8.5c0.8,2.9,1.5,5.7,2,8.6
						c0.5,2.9,0.8,5.8,1.2,8.7c0.3,2.5,0.5,4.9,0.7,7.4c-0.8-1.2-1.6-2.4-2.5-3.6c-2.6-3.7-5.3-7.2-8.1-10.7
						c-2.8-3.4-5.7-6.8-8.8-10.1c0,0-0.1,0-0.1,0c0,0,0,0.1,0,0.1c2.9,3.4,5.6,6.9,8.3,10.5c2.7,3.6,5.3,7.2,7.7,10.9
						c0.6,0.9,1.2,1.9,1.8,2.8c0.6,0.9,1.2,1.9,1.7,2.8l1.7,2.8c0.5,1,1.1,1.9,1.7,2.9c2.2,3.8,4.3,7.7,6.1,11.8l0,0c0,0,0,0,0.1,0
						c0,0,0.1,0,0.1-0.1c-0.3-1.1-0.6-2.1-1-3.2C91.4,531,91.1,530.4,90.9,529.9z"/>
					<path class="st10" d="M107.6,460.2c0.1-1.8,0.1-3.7-0.1-5.5c0,0,0-0.1-0.1-0.1c0,0-0.1,0-0.1,0.1c0.1,1.8,0,3.7-0.2,5.5
						c-0.2,1.8-0.5,3.6-0.9,5.4c-0.8,3.6-1.9,7.1-3.2,10.5c-0.6,1.7-1.4,3.4-2.1,5.1l-2.3,5c-1.4,3-2.8,6-4.2,9.1
						c-0.1-0.4-0.2-0.9-0.3-1.3c-1.6-6.7-3.5-13.3-5.5-19.8c-2.1-6.5-4.3-13-6.8-19.4c0,0-0.1-0.1-0.1,0c0,0-0.1,0.1,0,0.1
						c2.3,6.5,4.3,13,6.2,19.6c1.9,6.6,3.6,13.2,5.1,19.9c1.5,6.7,2.6,13.4,3.7,20.2c0.5,3.4,1,6.8,1.4,10.2
						c0.2,1.7,0.4,3.4,0.5,5.1c0.2,1.7,0.3,3.4,0.5,5.1l0,0c0,0,0,0.1,0.1,0.1c0,0,0.1,0,0.1-0.1c0-1.7,0-3.4,0.1-5.2
						c0-1.7-0.1-3.4-0.2-5.2c-0.1-1.7-0.2-3.4-0.4-5.1l-0.6-5.1c-0.9-6.2-2.1-12.4-3.6-18.5c1-1.3,1.9-2.7,2.7-4
						c1-1.6,1.9-3.2,2.7-4.9c1.7-3.3,3-6.8,4.2-10.3c1.2-3.5,2.2-7.1,2.8-10.8C107.2,463.9,107.5,462.1,107.6,460.2z"/>
				</g>
			</g>
			<g class="st4">
				<path class="st10" d="M646.6,432.3c-2.9-13.3-16.1-23.1-29.7-23.7c-13.6-0.5-26.8,7.3-34.3,18.7c3.2-19.9,6.2-40.2,2.8-60
					c-3.2-18.6-13.6-38.7-31-47.8c-23.7-12.4-45.3,17.3-53.8,36c-10.3,22.5-11.6,49.4-1.6,72.3c-13.2-3.1-21.5-19.8-35.1-19.3
					c-11.1,0.4-18.3,13.1-17.1,24.1c1.2,11,8.3,20.4,15.1,29.1c-14-8-33.3-4.8-44,7.1c-10.7,12-11.7,31.6-2.2,44.6h191.3
					c8-11.2,16.1-27.2,24.1-38.4C640.3,462.3,649.9,447.5,646.6,432.3z"/>
				<path class="st12" d="M522.1,500.3c-1.1-1.5-2.2-2.8-3.3-4.2c-1.1-1.3-2.3-2.6-3.4-4c-1.1-1.3-2.3-2.6-3.4-3.9
					c-0.6-0.6-1.2-1.3-1.7-2l-1.7-2c-1.4-1.5-2.7-3.1-4.2-4.6c1-0.9,1.7-2.1,2.3-3.3c0.7-1.7,1.2-3.4,1.4-5.2
					c0.4-3.6-0.6-7.1-1.7-10.4c-0.2-0.8-0.6-1.6-0.9-2.4c-0.3-0.8-0.6-1.6-1-2.4l-1.1-2.3c-0.4-0.8-0.7-1.6-1.2-2.3
					c-0.9-1.5-1.7-3-2.6-4.4c-0.9-1.4-1.9-2.8-2.8-4.2c0-0.1-0.1-0.1-0.2,0c-0.1,0-0.1,0.1-0.1,0.2l0,0l2.3,4.5
					c0.8,1.5,1.4,3.1,2.1,4.6c0.4,0.8,0.7,1.5,1,2.3l0.9,2.3c0.3,0.8,0.5,1.6,0.8,2.4c0.2,0.8,0.5,1.6,0.7,2.4l0.5,2.4
					c0.2,0.8,0.2,1.6,0.3,2.4c0,0.4,0.1,0.8,0.1,1.2l0,1.2l0.1,1.2l0,1.2c0,2.7-0.3,5.5-1.5,8c-3.1-3.3-6.3-6.6-9.2-10.1
					c-1.1-1.3-2.2-2.7-3.3-4L488,461c-2.1-2.8-4.1-5.6-6.1-8.5c-4-5.7-7.6-11.7-10.8-17.9l0,0c-0.1-0.1-0.2-0.2-0.3-0.1
					c-0.1,0.1-0.2,0.2-0.2,0.4c2.4,6.6,5.6,12.9,8.9,19.1c1.7,3.1,3.5,6.1,5.4,9.1l2.9,4.4c0.6,0.8,1.2,1.7,1.7,2.5
					c-0.3,0.1-0.7,0.1-1,0.2c-0.5,0-1,0.1-1.4,0.1c-0.5,0-0.9,0-1.4,0c-1.8-0.1-3.7-0.2-5.5-1c-1.8-0.7-3.5-1.9-5.1-3.2
					c-0.8-0.7-1.6-1.4-2.3-2.1c-0.7-0.8-1.4-1.5-2.1-2.3l0,0c0,0-0.1-0.1-0.2,0c-0.1,0-0.1,0.1,0,0.2c0.6,0.9,1.1,1.8,1.7,2.7
					c0.6,0.9,1.3,1.7,2,2.6c0.4,0.4,0.8,0.8,1.1,1.2c0.4,0.4,0.7,0.8,1.2,1.1l1.3,1c0.4,0.4,1,0.6,1.4,0.9l0.7,0.4
					c0.3,0.1,0.5,0.2,0.8,0.3c0.5,0.2,1,0.5,1.6,0.6c1.1,0.4,2.3,0.5,3.5,0.4c1.7-0.2,3.3-0.8,4.6-1.8c0.2,0.2,0.3,0.4,0.5,0.6
					c1,1.5,2.1,2.9,3.1,4.3c1.1,1.4,2.1,2.9,3.2,4.3c1.1,1.4,2.3,2.7,3.4,4.1c1.2,1.4,2.5,2.5,3.7,3.8c1.3,1.2,2.6,2.5,4,3.6
					c1.4,1.1,2.8,2.2,4.2,3.3c1.4,1.1,2.9,2,4.4,3c1.5,0.9,3,1.9,4.6,2.7c0.1,0,0.2,0,0.3,0C522.1,500.6,522.2,500.4,522.1,500.3
					L522.1,500.3z"/>
				<path class="st12" d="M496.5,506.8c-2.5-1.5-5-2.7-7.6-3.8c-2.5-1.2-5.1-2.2-7.7-3.2c-1.3-0.5-2.6-1-3.9-1.4l-2.6-0.8
					c0-0.1,0-0.1,0.1-0.2c0.1-0.3,0.2-0.6,0.3-0.9c0.1-0.6,0.2-1.2,0.2-1.8c0.1-2.5-1-4.7-2.1-6.7c-0.2-0.5-0.6-1-0.9-1.5
					c-0.3-0.5-0.6-1-0.9-1.4c-0.7-0.9-1.3-1.8-2.1-2.6c-0.8-0.8-1.5-1.7-2.3-2.4c-0.8-0.8-1.6-1.5-2.5-2.2c0,0-0.1,0-0.2,0
					c-0.1,0-0.1,0.1,0,0.2l0,0c0.7,0.9,1.3,1.7,2,2.6c0.7,0.9,1.2,1.8,1.9,2.7c0.6,0.9,1.1,1.9,1.7,2.8c0.3,0.5,0.5,1,0.7,1.4
					c0.2,0.5,0.5,0.9,0.7,1.4l0.5,1.5c0.2,0.5,0.2,1,0.3,1.5c0.1,0.5,0.2,1,0.3,1.5c0.1,0.5,0.2,1,0.2,1.4c0.1,0.7,0.1,1.5,0.1,2.2
					l-3.2-0.9c-1.3-0.4-2.6-0.9-3.9-1.3c-1.3-0.4-2.6-0.9-3.9-1.4c-1.3-0.5-2.6-1-3.8-1.5l-3.8-1.6l-3.8-1.7l-3.7-1.8
					c-1.2-0.6-2.5-1.2-3.7-1.9c-1.2-0.6-2.4-1.3-3.6-2c-1.2-0.7-2.4-1.4-3.5-2.3l0,0c-0.1-0.1-0.3-0.1-0.4,0c-0.1,0.1-0.1,0.3,0,0.4
					c2,2,4.2,3.7,6.5,5.3c1.1,0.8,2.3,1.6,3.5,2.4l3.6,2.3l3.6,2.1l3.7,2c0.8,0.4,1.6,0.8,2.4,1.2c-1.6,0.8-3.1,1.6-4.6,2.4
					c-1.9,0.9-3.7,2.2-5.8,3c-2,0.8-4.1,1.4-6.3,1.8c-2.2,0.4-4.4,0.4-6.7,0.3l0,0c-0.1,0-0.1,0-0.1,0.1c0,0.1,0,0.1,0.1,0.2
					c2.2,0.5,4.5,0.9,6.8,0.8c0.6,0,1.2,0,1.7-0.1c0.6-0.1,1.2-0.1,1.7-0.2c1.1-0.2,2.3-0.4,3.4-0.8c2.2-0.6,4.6-1.3,6.5-2.7
					c0.5-0.4,0.9-0.7,1.4-1.1c0.4-0.4,0.9-0.8,1.3-1.2c0.6-0.6,1.1-1.2,1.5-1.9c0.1,0.1,0.3,0.1,0.4,0.2c1.3,0.6,2.5,1.2,3.8,1.8
					l3.8,1.8l3.9,1.7c2.6,1.2,5.3,2,8,2.8c2.7,0.7,5.5,1.2,8.3,1.7c2.8,0.4,5.6,0.6,8.5,0.6c0.1,0,0.2-0.1,0.2-0.1
					C496.7,507.1,496.6,506.9,496.5,506.8L496.5,506.8z"/>
				<path class="st12" d="M574.8,377.3c-0.1,0-0.1,0.1-0.2,0.1l0,0c-0.5,5.5-1.6,10.9-3.8,15.9c-2.1,5-5.1,9.6-8.8,13.6
					c-1.8,2-3.8,3.9-5.9,5.6c-2.1,1.7-4.2,3.4-6.4,4.9c-3.7,2.7-7.5,5.1-11.5,7.3c0,0,0,0,0,0c-0.6-12.7-0.6-25.5-0.3-38.2
					c0.3-12.8,0.9-25.5,1.9-38.3c0-0.1-0.1-0.3-0.2-0.3c-0.2,0-0.3,0.1-0.3,0.2c-1,6.3-1.7,12.7-2.4,19.1
					c-0.7,6.4-1.3,12.7-1.7,19.1c-0.1,2.2-0.3,4.3-0.4,6.5c-2.8-1.7-5.5-3.4-8-5.3c-1.4-1.1-2.8-2.2-4.2-3.3
					c-1.4-1.1-2.6-2.4-3.8-3.8c-1.1-1.4-2.1-2.9-3-4.4c-0.8-1.6-1.6-3.2-2.1-4.9c-1.2-3.4-1.6-7.1-1.6-10.8c0-0.1-0.1-0.1-0.1-0.1
					c-0.1,0-0.1,0-0.2,0.1c-0.4,3.7-0.3,7.5,0.5,11.2c0.4,1.8,1.1,3.6,1.9,5.4c0.8,1.7,1.8,3.4,2.9,5c2.2,3.1,4.9,6,8.1,8
					c1.6,1,3.3,1.9,5.1,2.6c1.4,0.6,2.9,1,4.4,1.3c-0.6,10.4-1,20.8-1,31.2c0,12.8,0.1,25.8,2.1,38.5c0.2,1.6,0.5,3.2,0.8,4.8
					c0.3,1.6,0.5,3.2,0.9,4.8l1,4.7c0.4,1.6,0.8,3.1,1.2,4.7c1.7,6.2,3.8,12.4,6.5,18.2c0.1,0.1,0.2,0.2,0.3,0.2
					c0.2,0,0.2-0.2,0.2-0.3c-1.2-6.3-2.3-12.6-3.2-18.8l-0.7-4.7l-0.6-4.7c-0.2-1.6-0.4-3.1-0.5-4.7c-0.2-1.6-0.3-3.1-0.5-4.7
					c-0.6-6.3-1.2-12.6-1.8-18.9c-0.6-6-1-12-1.3-18c1.9-0.5,3.8-1.2,5.6-2c2.6-1.1,5.1-2.5,7.4-4c4.8-3,8.9-7,12.4-11.4
					c3.6-4.4,6.5-9.3,8.4-14.6c0.3-0.7,0.5-1.3,0.7-2c0.2-0.7,0.4-1.3,0.6-2c0.3-1.4,0.7-2.7,0.9-4.1c0.5-2.7,0.6-5.5,0.7-8.3
					C575,377.4,574.9,377.3,574.8,377.3z"/>
				<path class="st12" d="M632.4,450.7c-0.1,0-0.1,0-0.2,0l0,0c-0.8,1-1.5,2-2.3,2.9c-0.8,1-1.6,1.8-2.4,2.8
					c-0.9,0.9-1.7,1.7-2.7,2.5c-1,0.7-1.9,1.5-2.9,2.1c-2,1.3-4.2,1.9-6.4,2.5c-1.6,0.4-3.3,0.6-5.1,0.6c0.7-1.7,1.3-3.4,1.9-5.1
					c1.2-3.3,2.2-6.7,3.2-10.1c0.9-3.4,1.8-6.8,2.5-10.2c0.7-3.4,1.4-6.9,1.8-10.4c0-0.1-0.1-0.3-0.2-0.3c-0.1,0-0.3,0.1-0.3,0.2
					l0,0c-1.8,6.7-3.9,13.4-6.4,19.8c-1.2,3.2-2.6,6.4-4,9.6c-1.4,3.2-2.9,6.3-4.5,9.3c-2.9,5.6-6.6,10.6-10,15.8
					c-1.8-1.9-3.3-4.1-4.4-6.3c-1.7-3.3-3-6.8-3.6-10.5l-0.2-1.4l-0.1-0.7l0-0.7l-0.1-2.9l0-0.7l0-0.7l0.1-1.4
					c0.1-1,0.1-1.9,0.2-2.9c0.3-1.9,0.5-3.8,0.8-5.7l1.2-5.7l0,0c0-0.1,0-0.1-0.1-0.2c-0.1,0-0.2,0-0.2,0.1l-1.8,5.6
					c-0.5,1.9-0.9,3.8-1.4,5.7c-0.1,1-0.3,2-0.4,2.9l-0.2,1.5l-0.1,0.7l0,0.7l-0.1,3l0,0.7l0.1,0.7l0.1,1.5l0.1,1.5
					c0,0.5,0.2,1,0.2,1.5l0.3,1.5c0.1,0.5,0.2,1,0.3,1.5c0.3,1,0.6,2,1,2.9c0.5,0.9,0.9,1.9,1.4,2.7c1.1,1.7,2.4,3.4,4,4.6
					c0.6,0.5,1.3,1,2,1.5c-0.1,0.1-0.1,0.2-0.2,0.3c-1.9,2.8-3.9,5.5-6,8.3c-2.1,2.7-4.3,5.3-6.7,8l0,0c-0.1,0.1-0.1,0.2,0,0.3
					c0.1,0.1,0.2,0.2,0.4,0.1c3.3-1.4,6.3-3.4,9.1-5.7c2.8-2.3,5.3-4.9,7.6-7.7c2.3-2.8,4.2-5.8,5.9-9c1.7-3.2,3.1-6.4,4.6-9.7
					c0.5-1.2,1-2.4,1.5-3.6c0.6,0.3,1.3,0.6,2,0.7c1.3,0.4,2.7,0.4,4,0.3c0.7-0.1,1.3-0.3,2-0.4c0.6-0.2,1.3-0.5,1.9-0.8
					c1.2-0.7,2.3-1.3,3.3-2.2c1.1-0.7,2-1.7,2.9-2.6c0.9-0.9,1.7-1.9,2.5-2.9c0.7-1.1,1.4-2.1,2.1-3.2c0.6-1.1,1.2-2.2,1.8-3.3
					C632.5,450.8,632.5,450.7,632.4,450.7z"/>
			</g>
			<g class="st4">
				<path class="st7" d="M679.3,456.1c-2.7-5.5-9.8-8.9-15.2-6c-4,2.2-6.5,7.3-11,7.6c-5,0.3-8.1-5.9-7.1-10.8c1-4.9,4.5-8.8,7.1-13
					c4.4-7.4,6.1-16.4,4.6-24.8c-0.9-5.1-3.9-10.8-9.1-11.1c-5.8-0.4-10.6,6.4-16.3,5.2c-4.1-0.9-6.3-5.7-5.9-9.9
					c0.4-4.2,2.6-8,4.2-11.9c3.1-7.6,4-16.1,2.6-24.1c-0.8-4.5-2.4-9-5.8-12.1c-3.4-3.1-8.8-4.2-12.5-1.7c-4.5,3-4.9,9.4-4.5,14.8
					c0.3,4.4,0,10-4.1,11.4c-2.8,0.9-5.9-1-7.3-3.5c-1.4-2.6-1.6-5.6-1.6-8.5c-0.4-19.2,1.4-39.6-7.9-56.3
					c-3.7-6.7-10.6-13-18.1-11.5c-7.5,1.3-11.7,9.7-12.7,17.3c-2.6,19,6.5,37.4,13.2,55.4c1,2.7,2,5.6,1.6,8.5
					c-0.4,2.9-2.6,5.8-5.5,6c-4.4,0.2-6.7-4.9-8-9.1c-1.6-5.2-4.3-11-9.6-12.2c-4.4-1-9.1,2.1-11.1,6.2c-2,4.1-1.8,8.9-0.9,13.4
					c1.6,8,5.5,15.6,11.2,21.5c2.9,3.1,6.3,5.8,8.2,9.5c1.9,3.8,1.7,9.1-1.8,11.4c-4.9,3.2-11.8-1.4-17.1,1.1
					c-4.7,2.2-5.4,8.6-4.4,13.7c1.7,8.4,6.6,16.2,13.4,21.4c3.9,3,8.6,5.4,11.3,9.6c2.7,4.2,2,11.1-2.7,12.6
					c-4.3,1.4-8.5-2.5-13-3.1c-6-0.8-11.4,5-11.9,11.1c-0.5,6.1,2.8,11.9,7,16.3c8.8,9.3,21.8,13.9,34.6,14.8
					c12.8,0.9,28.4,3.4,40.9,0.6c12.7-2,26.3-10,37.9-15.5c11.6-5.5,22-14.5,26.8-26.4C681.1,468.2,682,461.6,679.3,456.1z"/>
				<path class="st26" d="M660.4,468.6c-0.3-0.2-0.7-0.1-0.9,0.2c-10,17.3-45.3,20.6-52.1,21.1c-0.4-1.5-0.9-3.1-1.3-4.6
					c-2.2-8.1-4.2-16.3-6-24.5c-1.4-6.3-2.7-12.7-3.9-19c1.7-0.1,5.6-0.3,10.6-1.3c11.9-2.2,29.7-8.4,37.4-25.1
					c0.2-0.3,0-0.7-0.3-0.9c-0.3-0.2-0.7,0-0.9,0.3c-10.8,23.3-42,25.4-47,25.6c-1.9-9.7-3.6-19.5-5.3-29.2
					c-0.7-4.1-1.4-8.2-2.1-12.2c0.8-0.1,1.8-0.2,3.1-0.5c9.5-1.8,31.1-8.8,31.5-35.1c0-0.4-0.3-0.7-0.7-0.7c-0.4,0-0.7,0.3-0.7,0.7
					c-0.2,13.6-6.1,23.5-17.5,29.4c-6.7,3.5-13.4,4.5-16,4.8c-2-12.1-3.9-24.2-5.6-36.4c-2.5-16.7-4.8-33.4-6.9-50.1
					c0-0.2-0.2-0.4-0.4-0.3c-0.2,0-0.4,0.2-0.4,0.4c1.8,16.8,3.8,33.5,6,50.2c1.9,14.3,4,28.7,6.2,43c-24.3,1-37.5-29.2-37.6-29.5
					c-0.1-0.3-0.5-0.5-0.9-0.4c-0.3,0.1-0.5,0.5-0.4,0.9c0.1,0.3,13.7,31.4,39.1,30.3c0.3,1.9,0.6,3.8,0.9,5.8
					c2.2,13.5,4.6,26.9,7.3,40.4c-35.3,5.2-47-16-47.1-16.2c-0.2-0.3-0.6-0.4-0.9-0.3c-0.3,0.2-0.5,0.6-0.3,0.9
					c0.1,0.2,3.1,5.9,10.8,10.8c6.9,4.4,19,8.9,37.7,6.1c0.6,2.7,1.1,5.4,1.7,8.1c1.8,8.3,3.7,16.5,5.9,24.6c1,3.5,2,7,3.2,10.4
					c-4.6,1.5-37.7,11.8-55.5-4.5c-0.3-0.2-0.7-0.2-0.9,0c-0.2,0.3-0.2,0.7,0,0.9c12.4,11.4,32,10.3,44.8,7.9c6-1.1,10.5-2.5,12-3.1
					c1.5,4.1,3.2,8.2,5.4,12.1c0.1,0.2,0.3,0.2,0.5,0.2c0.2-0.1,0.3-0.3,0.3-0.5l0,0c-1.9-6.1-3.7-12.1-5.4-18.2
					c2.6-0.2,8.4-0.7,15.2-2c2-0.4,4-0.8,6.1-1.3c16.2-3.9,26.8-10.1,31.6-18.4C660.9,469.2,660.8,468.8,660.4,468.6z"/>
			</g>
			<g class="st4">
				<path class="st7" d="M-16.9,498l-17-4.3c-1-10.2,0.7-21.9,7.1-34.9c2-4,4.1-7.8,6.4-11.4l15.8,6.5l-12.1-12.2
					c11.5-16.6,25.5-29,37.8-37.9l8,6l-3.3-9.3c14.2-9.6,25.1-13.9,25.1-13.9s2.8,5.1,6.2,13.9l-9,5.7l10.5-1.7
					c3.3,9.1,6.7,21.1,8.7,35l-13.3,4l14,1.5c1.5,14.3,1.2,30.3-2.6,46.9c-1.5,6.4-3.5,12-6,16.8l-18.1-6.3l14.2,12.8
					c-20.7,30.4-59.8,26.1-59.8,26.1s-22.8-14.8-28.6-40.8L-16.9,498z"/>
				<path class="st26" d="M41.5,412l-10.2,29.5c-3.3,9.8-6.9,19.6-10.3,29.4c-3.5,9.8-7,19.5-10.7,29.2c-3.8,9.7-7.4,19.3-10.7,29.2
					c-0.1,0.2,0,0.5,0.3,0.6c0.2,0.1,0.4,0,0.6-0.2c5.8-8.8,9.8-18.5,13.4-28.3c3.7-9.8,7.2-19.6,10.5-29.4
					c3.3-9.9,6.4-19.8,9.5-29.7c1.6-5,3-10,4.4-15c1.4-5,2.9-10,4.2-15c0.1-0.3-0.1-0.5-0.3-0.6C41.8,411.6,41.6,411.8,41.5,412z"/>
			</g>
			<g class="st4">
				<path class="st11" d="M-48.3,506.6l11.7-3c0.7-7-0.5-15.1-4.9-24c-1.4-2.8-2.9-5.4-4.4-7.9l-10.9,4.5l8.3-8.4
					c-8-11.4-17.6-20-26.1-26.1l-5.5,4.1l2.3-6.4c-9.8-6.6-17.3-9.6-17.3-9.6s-1.9,3.5-4.3,9.6l6.2,3.9l-7.2-1.2
					c-2.2,6.3-4.6,14.6-6,24.1l9.2,2.7l-9.6,1c-1,9.9-0.8,20.9,1.8,32.3c1,4.4,2.4,8.2,4.2,11.6l12.4-4.3l-9.8,8.8
					c14.3,21,41.2,18,41.2,18s15.7-10.2,19.7-28.2L-48.3,506.6z"/>
				<path class="st7" d="M-88.6,447.3l7,20.3c2.3,6.8,4.7,13.5,7.1,20.3c2.4,6.7,4.8,13.5,7.4,20.1c2.6,6.7,5.1,13.3,7.4,20.1
					c0.1,0.2,0,0.4-0.2,0.4c-0.1,0-0.3,0-0.4-0.1c-4-6.1-6.7-12.8-9.3-19.5c-2.5-6.7-4.9-13.5-7.2-20.3c-2.3-6.8-4.4-13.7-6.5-20.5
					c-1.1-3.4-2.1-6.9-3.1-10.3c-1-3.4-2-6.9-2.9-10.4c0-0.2,0.1-0.4,0.2-0.4C-88.8,447-88.6,447.1-88.6,447.3z"/>
			</g>
			<path class="st23" d="M535.6,525.8c0.1-1-1.5-2.7-2.1-3.6c-0.2-0.3-0.4-0.7-0.6-1c0.3-0.2,0.7-0.4,1.2-0.8
				c1.5-1.1,2.9-2.4,4.1-3.9c2.3-2.8,4-6.1,5.4-9.6c0.7-1.7,1.2-3.5,1.1-5.4c-0.2-1.9-1.3-3.8-3-4.5c-2.1-0.8-4.2,0.5-5.8,2
				c-4.1,4-6.8,10.9-5.6,17.8c-0.6-1-1.3-2.1-1.9-3.1c-3.4-5.7-6.6-11.4-9.6-17.2c-0.1-0.1-0.1-0.3-0.2-0.4c0.3-0.1,0.6-0.3,1-0.5
				c1.7-0.8,3.2-1.9,4.6-3.1c2.7-2.4,5-5.4,6.9-8.5c0.9-1.5,1.8-3.2,2-5c0.2-1.8-0.5-3.9-2.1-4.8c-1.9-1.1-4.2-0.2-6,1.1
				c-4.8,3.3-8.7,9.8-8.5,16.7c-3.5-7-6.8-14.2-9.5-21.5c0.3-0.1,0.6-0.3,1.1-0.5c1.6-0.8,3-1.8,4.3-3c2.6-2.2,4.8-5,6.7-7.9
				c0.9-1.4,1.8-2.9,2-4.7c0.2-1.7-0.4-3.7-1.8-4.6c-1.7-1.1-3.9-0.3-5.6,0.9c-4.4,3-8,8.9-8.4,15.2c-0.2-0.6-0.4-1.2-0.6-1.8
				c-2.1-6.2-3.8-12.7-4.9-19.3c0.1,0,0.2-0.1,0.4-0.1c1.5-0.5,3-1.2,4.4-2c2.7-1.6,5.1-3.8,7.2-6.1c1-1.2,2.1-2.4,2.5-4
				c0.4-1.5,0.2-3.4-1-4.5c-1.4-1.3-3.5-0.8-5.1,0c-3.9,1.8-7.5,5.8-9.2,10.7c-0.7-6.2-1-12.5-0.6-18.6c0.1,0,0.2,0,0.3,0.1
				c1.6,0.3,3.2,0.2,4.8,0c3.1-0.4,6-1.4,8.8-2.7c1.4-0.7,2.8-1.4,3.7-2.7c0.9-1.2,1.4-3.1,0.6-4.5c-0.9-1.7-3-2.1-4.8-2
				c-4.6,0.2-9.9,2.6-13,6.9c0.9-7.1,2.6-14.1,5.5-20.6c0.2-0.1,0.4-0.2,0.6-0.4c1.4-0.8,2.7-1.9,3.9-3c2.3-2.2,4.1-4.9,5.7-7.8
				c0.8-1.4,1.5-3,1.5-4.7c0.1-1.8-0.7-3.9-2.1-4.9c-1.7-1.2-3.7-0.3-5.2,1c-4.2,3.4-7.2,10.4-6.5,17c-0.1,0.1-0.1,0.2-0.2,0.3
				c-3,6.7-5,13.7-6,21c-1.3-5-4.1-9.7-7.3-12.8c-1.4-1.3-3.2-2.4-4.8-1.4c-1.3,0.9-2,3.1-1.8,5c0.2,1.9,1,3.6,1.8,5.1
				c1.8,3,4,5.7,6.5,7.6c1.3,1,2.7,1.8,4.2,2.4c0.2,0.1,0.5,0.2,0.6,0.2c-0.5,7.1-0.2,14.3,0.7,21.4c-2.9-4.6-7.6-8.3-12-9.7
				c-1.7-0.5-3.8-0.7-4.9,1.1c-0.9,1.5-0.7,3.8,0.2,5.5c0.8,1.7,2.2,2.8,3.5,3.7c2.7,1.9,5.6,3.3,8.6,3.9c1.5,0.3,3.1,0.4,4.6,0.3
				c0.3,0,0.5-0.1,0.7-0.1c1.2,6.8,2.9,13.5,5.1,19.8c0,0,0,0,0,0c-3.9-3.9-9.1-6.6-13.7-7.3c-1.9-0.3-4.2-0.1-5.1,2
				c-0.7,1.8-0.1,4.2,1.1,5.9c1.2,1.7,2.8,2.6,4.4,3.4c3.3,1.6,6.7,2.5,10,2.6c1.7,0,3.4-0.1,5-0.6c0.1,0,0.2-0.1,0.3-0.1
				c2.4,6.3,5.1,12.6,8.1,18.7c-4.4-3.9-9.9-6.7-14.8-7.7c-2.2-0.4-4.6-0.3-5.6,1.8c-0.8,1.8,0,4.4,1.4,6.3c1.4,1.8,3.2,2.9,5,3.9
				c3.7,1.8,7.5,3,11.2,3.2c1.9,0.1,3.8,0,5.6-0.5c0.2-0.1,0.5-0.1,0.7-0.2c0.2,0.3,0.3,0.6,0.5,0.9c3.1,5.9,6.4,11.8,9.9,17.6
				c0.2,0.3,0.4,0.6,0.6,1c-5.2-3.6-11.6-5.8-16.9-6.1c-2.2-0.1-4.7,0.4-5.2,2.7c-0.4,1.9,0.8,4.4,2.5,6.1c1.7,1.6,3.7,2.5,5.7,3.1
				c4,1.3,8,1.9,11.8,1.6c1.9-0.2,3.8-0.6,5.5-1.3c0.1-0.1,0.3-0.1,0.4-0.2c0.4,0.7,0.8,1.3,1.2,2c0.5,0.8,1.4,2.7,2.3,3
				c0.5,0.2,1.2-0.3,1.7-0.8C535.5,526.3,535.6,526,535.6,525.8z"/>
			<g class="st4">
				<path class="st7" d="M405.3,506.5c0,0,29.8-0.6,43.2-16.5C462,474,447.4,458.1,434,461C420.5,463.9,402.8,488.5,405.3,506.5z"/>
				<path class="st7" d="M386.4,506.5c0,0-29.8-0.6-43.2-16.5c-13.4-15.9,1.1-31.8,14.6-28.9C371.2,463.9,388.9,488.5,386.4,506.5z"
					/>
				<path class="st11" d="M448.3,480.5c-0.1-0.2-0.4-0.4-0.6-0.2c-5.4,2.3-12.2-0.5-14.4-1.5c4.7-3.6,7.7-5.3,7.8-5.3
					c0.2-0.1,0.3-0.4,0.2-0.6c-0.1-0.2-0.4-0.3-0.6-0.2c-0.1,0-3.4,1.9-8.4,5.8c-0.1,0-0.1,0.1-0.1,0.1c-1.6,1.2-3.3,2.6-5.1,4.3
					c-0.8-1.5-3.2-6.6-1.1-12.2c0.1-0.2,0-0.5-0.3-0.6c-0.2-0.1-0.5,0-0.6,0.3c-2.4,6.3,0.4,11.8,1.3,13.2c-2.6,2.4-5.5,5.2-8.5,8.4
					c0,0,0,0,0,0c0,0,0,0,0,0c-1.3,1.5-2.7,3-4,4.7c-0.8-1.2-2.5-4.7-1.5-8.9c0.1-0.3-0.1-0.5-0.4-0.6c-0.3-0.1-0.5,0.1-0.6,0.4
					c-1.2,5,1.1,8.8,1.8,9.9c-1.2,1.4-2.3,2.9-3.5,4.5c-0.2,0.2-0.1,0.5,0.1,0.7c0.1,0.1,0.2,0.1,0.3,0.1c0.1,0,0.3-0.1,0.4-0.2
					c2.6-3.5,5.2-6.6,7.8-9.5c1,1,4.1,3.5,9.9,3.5c1.4,0,2.9-0.1,4.5-0.4c0.3,0,0.4-0.3,0.4-0.6c0-0.3-0.3-0.4-0.6-0.4
					c-5.2,1-8.7,0.1-10.7-0.8c-1.5-0.7-2.5-1.5-2.9-1.9c5.1-5.6,9.9-9.8,13.8-12.9c0.7,0.4,2.6,1.2,5,1.9c1.9,0.5,3.7,0.8,5.4,0.8
					c1.9,0,3.6-0.3,5.1-1C448.2,481.1,448.4,480.8,448.3,480.5z"/>
				<path class="st11" d="M383.3,503.4c-3.4-4.6-6.8-8.5-10.1-12c0.9-1.2,3.4-5.8-0.2-14.5c-0.1-0.2-0.4-0.4-0.6-0.3
					c-0.2,0.1-0.4,0.4-0.3,0.6c3.3,8,1.2,12.2,0.4,13.5c-2.2-2.3-4.4-4.4-6.4-6.2c0,0-0.1-0.1-0.1-0.1c-2.6-2.3-4.9-4.2-6.9-5.7
					c0.6-1.5,2.7-7.3-0.9-13.7c-0.1-0.2-0.4-0.3-0.6-0.2c-0.2,0.1-0.3,0.4-0.2,0.6c3.2,5.7,1.6,11,1,12.7c-3.7-2.7-6-4-6.1-4.1
					c-0.2-0.1-0.5,0-0.6,0.2c-0.1,0.2,0,0.5,0.2,0.6c0.1,0.1,5.5,3.1,13,9.7c-2.3,0.7-9.3,2.7-16.5,1c-0.3-0.1-0.5,0.1-0.6,0.3
					c-0.1,0.3,0.1,0.5,0.3,0.6c2.2,0.5,4.4,0.7,6.4,0.7c5.5,0,9.9-1.5,11.1-1.9c3.8,3.4,8,7.6,12.3,12.8c-0.4,0.4-1.3,1.2-2.9,1.6
					c-2.1,0.6-5.8,0.7-11.5-2c-0.2-0.1-0.5,0-0.6,0.2c-0.1,0.2,0,0.5,0.2,0.6c3.9,1.9,6.9,2.5,9.3,2.5c3.5,0,5.4-1.4,6.1-2.2
					c1.3,1.6,2.7,3.3,4,5.1c0.1,0.1,0.2,0.2,0.4,0.2c0.1,0,0.2,0,0.3-0.1C383.4,503.9,383.4,503.6,383.3,503.4z"/>
				<path class="st21" d="M406.5,432.4c-6.5-4.9-14.7-4.9-21.2,0c-8.8,6.6-16.1,19.9-12.7,39c4.9,26.6,23.3,35.1,23.3,35.1
					s18.4-8.5,23.3-35.1C422.6,452.3,415.3,439,406.5,432.4z"/>
				<path class="st11" d="M411.5,449.9c-0.3-0.1-0.5,0.1-0.6,0.3c-3,11.1-14.4,18.3-17.3,19.9c0.1-2.9,0.2-5.7,0.3-8.3
					c0.7-12.4,2.2-22.2,2.2-22.3c0-0.3-0.1-0.5-0.4-0.5c-0.3,0-0.5,0.1-0.5,0.4c0,0.1-0.9,5.7-1.6,13.9c-1.8-0.3-8.2-2-11.1-9.4
					c-0.1-0.2-0.4-0.4-0.6-0.3c-0.2,0.1-0.4,0.4-0.3,0.6c3.1,7.9,10.1,9.6,11.9,10c-0.8,9.1-1.3,21.1-0.4,32.2
					c-2.9-1.3-13.8-6.7-15.8-16.1c-0.1-0.3-0.3-0.4-0.6-0.4c-0.3,0.1-0.4,0.3-0.4,0.6c1,4.7,4.2,9.1,9.4,12.9
					c3.4,2.4,6.5,3.7,7.4,4.1c0.5,5,1.2,9.7,2.4,14c0.1,0.2,0.2,0.3,0.5,0.3c0,0,0.1,0,0.1,0c0.3-0.1,0.4-0.3,0.3-0.6
					c-2.5-8.8-3.1-20.1-3-30c1.8-1,15-8.6,18.2-20.8C411.9,450.3,411.7,450,411.5,449.9z"/>
			</g>
			<path class="st27" d="M393.7,392.9c0-3.8-17.4-6.9-38.8-6.9c-16.5,0-30.5,1.8-36.2,4.4c-1.7,0-3.4,0-5.1,0
				c-27.2,0-49.3,3.9-49.3,8.7c0,4.8,22.1,8.7,49.3,8.7c26.1,0,47.5-3.6,49.1-8.2C380.4,399,393.7,396.2,393.7,392.9z"/>
			<g class="st4">
				<path class="st21" d="M196.3,508.3c0.5-4.9-1.8-9.6-3.6-14.2s-2.6-10.3,0.4-14.2c1.1-1.5,2.7-2.5,3.8-4.1
					c2.4-3.4,1.7-8.2-0.3-11.8c-2-3.6-5.2-6.5-7.8-9.7c-1.4-1.7-2.7-3.7-3.5-5.8c-0.5-1.2-2.1-1.4-2.8-0.3
					c-4.7,7-16.3,10.7-22.1,15.5c-1.2,1-2.4,2.1-2.9,3.6c-1.9,4.6,1.8,9.6,0.2,14.3c-1.6,4.9-6,8.3-8.5,12.6
					c-5.2,8.9-1.1,18.1,4.7,25.4c2.8,3.5,6.4,6.6,8.9,10.2c0.4,0.6,4,6.2,4,6.2c3.8-6.1,10.3-9.1,16.3-12.5
					C189.3,520.1,195.6,515.2,196.3,508.3z"/>
				<path class="st11" d="M184.9,505.7c-0.2-0.1-0.5,0-0.6,0.2c-4.4,8.9-15.7,9.4-18,9.4c-0.6-6-0.6-14.2,2.2-21.4
					c2.1,0.3,12.1,1.2,16.4-5.7c0.1-0.2,0.1-0.5-0.1-0.6c-0.2-0.1-0.5-0.1-0.6,0.1c-3.8,6.2-12.9,5.6-15.3,5.3
					c1.1-2.7,2.6-5.2,4.7-7.4c0.5-0.5,0.9-1,1.3-1.5c0,0,0,0,0,0c2.6-3.1,4.3-6.5,5.4-9.9c1.7,0.2,9,0.7,10.6-6.4
					c0.1-0.2-0.1-0.5-0.3-0.5c-0.2-0.1-0.5,0.1-0.5,0.3c-1.4,6.2-7.6,5.9-9.4,5.7c2.5-7.9,2-15,1.9-15.1c0-0.3-0.2-0.4-0.5-0.4
					c-0.3,0-0.4,0.2-0.4,0.5c0,0.2,1.1,14.6-7.3,25c-1.2-0.4-5.7-2-7.7-5.7c-1.1-2-1.3-4.4-0.5-7c0.1-0.2-0.1-0.5-0.3-0.6
					c-0.2-0.1-0.5,0.1-0.6,0.3c-0.9,2.8-0.7,5.4,0.5,7.7c2,3.7,6.2,5.4,7.9,6c-0.3,0.3-0.5,0.6-0.8,0.9c-2.2,2.4-3.9,5.2-5,8.2
					c0,0.1-0.1,0.1-0.1,0.2c0,0,0,0,0,0c-1.7,4.3-2.4,8.8-2.6,12.9c-1.6,0.3-8.5,1.2-12-7.5c-0.1-0.2-0.4-0.3-0.6-0.2
					c-0.2,0.1-0.3,0.4-0.2,0.6c2.2,5.3,5.6,7.3,8.5,7.9c1.9,0.4,3.5,0.3,4.3,0.1c0,0.9,0,1.8,0,2.7c0.1,8,1.8,14.4,1.8,14.4
					c0,0.2,0.2,0.3,0.3,0.3c0.1,0,0.1,0,0.2,0c0.2-0.1,0.4-0.3,0.3-0.6c0-0.1-0.8-3.2-1.3-7.8c2.7,0,14.2-0.6,18.8-9.9
					C185.2,506.1,185.1,505.8,184.9,505.7z"/>
			</g>
			<g class="st4">
				<ellipse class="st28" cx="182.7" cy="380.4" rx="49.3" ry="8.7"/>
				<g>
					<path class="st17" d="M177,182c-0.9,0.6-3.3,4.3-4.2,6.1c-1.6,3.2-2.6,6.5-3.3,9.9c-0.9,4.7-1.8,10.6-7,12.3
						c-6.5,2.2-10.9,14.5-5.4,28c1.7,4.2,2.6,9.1-0.6,12.8c-1.2,1.4-2.8,2.5-4.2,3.7c-4.8,4.5-2.5,13.2,1.5,17.5
						c5.2,5.6,13.8,5.7,20.8,4.8c26.7-3.7,30.5-18.1,28.3-24c-2.2-5.9-10.9-9.6-10.1-17.6c0.9-8,6.8-10.8,8.1-16.1
						c1.3-5.2-4.4-9.7-4.6-14.8c-0.2-5.1,5.2-14.3,0-18.9C191.2,181.3,182.4,178.4,177,182z"/>
					<path class="st17" d="M197.5,370.6c0,0,2.1,5.1,2.6,7.9c0.4,2.7-2.6,4.5-12.3,5.5c-7.7,1.1-11.3-1.1-5.1-3.6
						c6.2-2.5,8.7-5,8.7-8.6C191.4,369.8,197.5,370.6,197.5,370.6z"/>
					<path class="st29" d="M162.6,268.6c0,0,7.7,47.6,15.3,67.1c6.3,16.1,12.3,37.3,12.3,37.3s4.8,1.1,8.9-1.3
						c-0.8-7.7-6.9-39.7-12.2-54.8c0,0,11.7-32.2,5.1-51.3C187.5,254.7,166.2,263.9,162.6,268.6z"/>
					<path class="st17" d="M174,372.3c0,0,1.4,5.4,1.5,8.1c0,2.8-5.2,4.1-15,3.7c-7.8,0-10-2.5-3.5-4.1c6.5-1.6,10.4-3.9,10.9-7.4
						C168.1,370.6,174,372.3,174,372.3z"/>
					<path class="st12" d="M196,265.7c0,0,6.1,8.4,3.5,19.2c-2.6,10.9-16,46-16,46l-8.6,43.4c0,0,0.2,1.4-4.3,1.4
						c-3.5,0-4.2-1.4-4.2-1.4s1.3-34.4,2.6-45.8c1.3-11.4,5.5-50.5,8.9-59.8C180.7,264.8,196,265.7,196,265.7z"/>
					<path class="st18" d="M188.4,265.7c-3.6,0.7-7.5,1.5-9.8,2.3c-0.3,0.2-0.6,0.5-0.8,0.8c-0.6,1.5-1.2,3.9-1.8,6.9
						c2.9,1.3,15.7,7.4,22.2,13.5c0.5-1.6,0.9-3.1,1.2-4.2c2.6-10.9-3.5-19.2-3.5-19.2S192.4,265.5,188.4,265.7z"/>
					<path class="st16" d="M162,225.6c-0.2-0.2-0.4-0.4-0.7-0.6c-2-1.6-2.8,1.5-3.8,3.1c-0.7,1-1.4,2.1-2.1,3.1
						c-0.4,0.5-0.7,1-1,1.5l-0.5,0.7c-0.2,0.2-0.3,0.4-0.5,0.6l-0.5,0.6c-0.1,0.1-0.2,0.2-0.2,0.3c-0.3,0.3-0.8,0.6-1.3,1
						c-1,0.7-2.1,1.4-3.1,2.1c-2.1,1.4-4.3,2.8-6.5,4.1c-4.4,2.7-8.8,5.4-13.2,8.1c0,0-2.4-1.8-5.4-2c-2.9-0.2-3.9-0.5-3.9-0.5
						s0.7,2.2,2.9,2.8c1.3,0.3,1.5,0.5,1.5,0.5s-3.7,2.3-6.3,3.1c-2.6,0.8-3.1,0.9-1.6,1.6c1.5,0.6,3.8-0.4,3.8-0.4
						s-2.8,1.7-3.9,2.5c-1,0.8,2.3,1.5,4.5,2.2c2.2,0.7,9-3.6,10.2-6c4.8-2,9.6-3.9,14.4-6c2.4-1,4.8-2,7.2-3.1
						c1.2-0.5,2.4-1.1,3.7-1.7c0.6-0.3,1.3-0.6,2-1.1c0.4-0.3,0.8-0.6,1.3-0.9c0.4-0.3,0.6-0.5,0.9-0.8c0.3-0.3,0.6-0.5,0.9-0.8
						l0.8-0.7c0.5-0.5,1-1,1.5-1.5c0.7-0.7,2.2-1.8,2.4-2.8c0.2-1-0.6-3.1-0.8-4.2c-0.1-0.5-0.2-0.9-0.3-1.4
						C163.8,227.6,163,226.5,162,225.6z"/>
					<path class="st30" d="M173.8,208.1c0,0-8.7-0.8-15.5,14c-2,4-3,5.5-3,5.5s1.6,7.6,7.8,9.9c2,0.1,14.4-22,13.5-24.4
						C175.7,210.8,173.8,208.1,173.8,208.1z"/>
					<path class="st16" d="M219.5,279.2c-0.6-2,0.3-2.7,0.8-4.6c0.5-2-0.8-4.4-0.8-4.4c0,0-0.1-0.1-0.2-0.1
						c-0.3-6.2-0.9-12.2-2-18.4c-0.5-3.1-1.2-6.2-2.2-9.4l-0.4-1.2l-0.5-1.2c-0.3-0.8-0.6-1.6-1.1-2.4l-0.6-1.2
						c-0.2-0.4-0.6-0.9-0.8-1.3l-0.9-1.3c0,0-0.7-0.9-0.7-0.9c-2.9-3.5-8.3-13.4-12.7-6.7c-1.9,2.9-3,6-0.5,8.3
						c1.9,1.7,4,3.3,5.9,5.1l0.8,0.8l0.5,0.5c0.2,0.2,0.3,0.3,0.5,0.6l0.5,0.7c0.4,0.4,0.7,1,1,1.6l0.5,0.9l0.4,0.9
						c1.2,2.5,2.2,5.2,3.1,8c1.7,5.3,3.1,11,4.2,16.6c0,0-1,1.5-2,2.7c-1.2,1.7-1.1,5-0.7,4.2c0.4-0.8,1.7-2.7,1.7-2.7
						s-0.3,3.1,0,5.1c0.9,3.4,2.9,6,3.2,5.4c-1.2-2.7-1.2-5.5-1.2-5.5s0.8,2.4,2,3.4c1.7,1.2,4.2,0,4.2,0S220.1,281.2,219.5,279.2z"
						/>
					<path class="st7" d="M194.2,234.4c1.5,1.3,3.1,2.5,4,2.9c7.7-3.2,8.3-11.1,8.3-11.1s-0.9-0.9-3.9-4.6
						c-7.4-8.8-12.6-11.3-12.6-11.3v0c-4.3-2.4-11.8-2.4-11.8-2.4c-4.2-0.3-8,0.5-10.9,4.1c-3,3.6-7.8,11.6-6.7,17.9
						c1.1,6.3,4.8,6.1,4.8,13.9c0,10.2-2.1,19.4-3.1,29c22,7.8,36.1-4.1,36.1-4.1c-0.9-4.5-7.1-15.9-4.7-30.2
						C193.8,237,194,235.7,194.2,234.4z"/>
					<path class="st16" d="M182.9,181.2c0,0,8.6-1.9,11.7,6.8c0.6,3.1-0.2,5.1,0.8,6.8c0.9,1.7,1.8,2.4,0,3.2
						c-1.8,0.8-1.8,1.7-1.6,3.3s-0.9,3.9-4.5,3.4c-3.5-0.5-7.3-1.8-11.2-7.3C174.2,192,174.8,182.8,182.9,181.2z"/>
					<path class="st16" d="M179.1,198.8c0,0,1.2,6.7-3.4,12c-2.7,2.9-2,9.3,3.2,9.9c5.1,0.6,9.8-3,5.7-9.6c-2-2.9-0.6-7.1,0.5-8.7
						S182.6,198,179.1,198.8z"/>
					<path class="st17" d="M185.1,188.9c0,0,6.3,5.5,11.4,2.8c5.1-2.7,1.3-10.7-3.5-11.8c-4.7-1.1-11.1-2.4-16,2.1
						c-1.7,1.9-6.7,9.6,0.8,18.2c3.7,1.1,1.7-3.2,1.4-6c-0.3-2.8,1.2-4.4,2.1-2.2s0.5,6.1,1.1,6.7
						C182.9,199.2,182.5,188.8,185.1,188.9z"/>
					<path class="st31" d="M194.2,234.4c1.5,1.3,3.1,2.5,4,2.9c2.4-1,4.1-2.5,5.3-4c0,0-5.9-1.9-9.6-4.3c-2.8,1.6-3.9,7.4-4.5,10.1
						c-1.7,7.4,4.3,17.7-2.8,23.1c-6.8,5.2-15.3,6.4-23.7,5.4c-0.2,1.3-0.4,2.6-0.6,3.9c0,0.3-0.1,0.6,0.1,0.8
						c0.1,0.3,0.4,0.4,0.7,0.5c11.5,4.4,25.1,2.8,35.3-4.2c-3.2-10-6.6-19.6-4.7-30.2C193.8,237,194,235.7,194.2,234.4z"/>
				</g>
			</g>
		</g>
	</g>
</g>
</svg>
