<?xml version="1.0" encoding="utf-8"?>
<!-- Generator: Adobe Illustrator 23.0.5, SVG Export Plug-In . SVG Version: 6.00 Build 0)  -->
<svg version="1.1" xmlns="http://www.w3.org/2000/svg" xmlns:xlink="http://www.w3.org/1999/xlink" x="0px" y="0px"
	 viewBox="0 0 500 500" style="enable-background:new 0 0 500 500;" xml:space="preserve">
<style type="text/css">
	.st0{display:none;}
	.st1{display:inline;fill:#E2DADA;}
	.st2{fill:#EBE6E6;}
	.st3{fill:#A19CD7;}
	.st4{fill:none;stroke:#6B69A3;stroke-width:1.4775;stroke-linecap:round;stroke-linejoin:round;stroke-miterlimit:10;}
	.st5{fill:none;stroke:#D1B7B6;stroke-width:1.913;stroke-miterlimit:10;}
	.st6{fill:#D6AF60;}
	.st7{fill:#FFFFFF;}
	.st8{fill:#1A1723;}
	.st9{fill:#2C253D;}
	.st10{fill:#BC5642;}
	.st11{fill:#AB4232;}
	.st12{fill:#D4AF8A;}
	.st13{fill:#DDDCDD;}
	.st14{fill:none;stroke:#2C253D;stroke-width:1.0712;stroke-miterlimit:10;}
	.st15{fill:none;stroke:#FFFFFF;stroke-width:0.6267;stroke-miterlimit:10;}
	.st16{fill:#7771AD;}
	.st17{fill:#6B69A3;}
	.st18{fill:#8680B9;}
	.st19{fill:none;stroke:#7771AD;stroke-width:1.0374;stroke-miterlimit:10;}
	.st20{fill:#C69C75;}
	.st21{fill:#090006;}
	.st22{fill:none;stroke:#090006;stroke-width:0.7005;stroke-linecap:round;stroke-linejoin:round;stroke-miterlimit:10;}
	.st23{fill:#5A5080;}
	.st24{fill:none;stroke:#E6E6E6;stroke-width:1.0374;stroke-miterlimit:10;}
</style>
<g id="BACKGROUND" class="st0">
	<rect x="0.2" class="st1" width="500" height="500"/>
</g>
<g id="OBJECTS">
	<g>
		<g>
			<g>
				<path class="st2" d="M439.8,425.6H311.3l0,0c0-37.2,28.8-67.3,64.2-67.3h0C411,358.4,439.8,388.5,439.8,425.6L439.8,425.6z"/>
				<path class="st2" d="M340.8,425.6H69.3l0,0c0-78.5,60.8-142.1,135.7-142.1h0C280,283.5,340.8,347.1,340.8,425.6L340.8,425.6z"/>
			</g>
			<g>
				<g>
					
						<ellipse transform="matrix(0.2191 -0.9757 0.9757 0.2191 -278.2437 367.1495)" class="st3" cx="90.2" cy="357.4" rx="39.2" ry="39.2"/>
					<g>
						<line class="st4" x1="90.2" y1="333.6" x2="90.2" y2="425.6"/>
						<line class="st4" x1="73.3" y1="364.3" x2="90.2" y2="379.6"/>
						<line class="st4" x1="109.4" y1="338.7" x2="90.2" y2="365.3"/>
					</g>
				</g>
				<g>
					<circle class="st3" cx="384" cy="374.8" r="29.2"/>
					<g>
						<line class="st4" x1="384" y1="357.1" x2="384" y2="425.6"/>
						<line class="st4" x1="371.4" y1="379.9" x2="384" y2="391.4"/>
						<line class="st4" x1="398.3" y1="360.9" x2="384" y2="380.7"/>
					</g>
				</g>
			</g>
			<line class="st5" x1="47.1" y1="425.9" x2="457.6" y2="425.9"/>
		</g>
		<g>
			
				<ellipse transform="matrix(0.1593 -0.9872 0.9872 0.1593 30.4101 206.5869)" class="st6" cx="136.5" cy="85.4" rx="18.2" ry="18.2"/>
			<g>
				<g>
					<path class="st7" d="M407,140.3h-17.3l0,0c0-5,3.9-9,8.6-9l0,0C403.1,131.3,407,135.3,407,140.3L407,140.3z"/>
					<path class="st7" d="M393.7,140.3h-36.5l0,0c0-10.5,8.2-19.1,18.2-19.1l0,0C385.5,121.2,393.7,129.8,393.7,140.3L393.7,140.3z"
						/>
				</g>
				<g>
					<path class="st7" d="M108.2,212.9H70.8l0,0c0-10.8,8.4-19.5,18.7-19.5l0,0C99.8,193.3,108.2,202.1,108.2,212.9L108.2,212.9z"/>
					<path class="st7" d="M120.9,212.9h-18.7l0,0c0-5.4,4.2-9.8,9.3-9.8l0,0C116.7,203.1,120.9,207.5,120.9,212.9L120.9,212.9z"/>
				</g>
			</g>
		</g>
	</g>
	<g>
		<g>
			<g>
				<path class="st8" d="M189.1,182.7c-0.3,0-1.6,0.7-3.4,1.6c-5.8,2.9-9.8,8.6-10.7,15l-1.3,9.3c-0.9,6.3,1.4,12.7,6,17.1l4.6,4.4
					L189.1,182.7z"/>
				<path class="st9" d="M250,154.2l-28.6-3.4c-2.2-0.3-4.4-0.4-6.7-0.1c-14.1,1.4-25.6,12.7-26.9,27.2l-4.8,51.6
					c-0.7,7.1,3.8,13.7,10.7,15.8l41.5,11.4L250,154.2z"/>
			</g>
			<g>
				<polygon class="st10" points="208.8,126.5 260.7,140 256.8,165 204,151.3 				"/>
				<path class="st11" d="M218.8,141.3c-1.3,6.8-8,11.3-14.8,10c-6.8-1.3-11.3-8-10-14.8c1.3-6.8,8-11.3,14.8-10
					C215.6,127.8,220.1,134.5,218.8,141.3z"/>
				<path class="st9" d="M224.9,130.7c0,0,7.7,3.8,5.4,12.6c-2.8,10.4-10.5,12.1-10.5,12.1l5.1,1.3c0,0,7.7-3.1,9.7-12.6
					c1.9-9.1-4.1-12-4.1-12L224.9,130.7z"/>
				<path class="st9" d="M245.3,136.2c0,0,7.7,3.8,5.4,12.6c-2.8,10.4-10.5,12.1-10.5,12.1l5.1,1.3c0,0,7.7-3.1,9.7-12.6
					c1.9-9.1-4.7-12.1-4.7-12.1L245.3,136.2z"/>
			</g>
		</g>
		<g>
			<g>
				<g>
					<g>
						<polygon class="st12" points="276.5,357.9 294,402.4 315.2,392.9 302.3,348.2 						"/>
						<polygon class="st7" points="287.5,385.8 310.7,377.3 315.2,392.9 292.7,399.9 						"/>
					</g>
					<g>
						<path class="st9" d="M289.9,397.9l6.8,22.2l55.8-17.1c0,0-1-10.1-13.3-8.2c-12.3,1.9-14.7,3.5-18.5,0.8
							c-2.1-1.5-3.3-4.1-3.9-5.9c-0.4-1.1-1.5-1.7-2.6-1.3l-22.9,7C290.2,395.6,289.5,396.8,289.9,397.9z"/>
						
							<rect x="293.8" y="411.4" transform="matrix(-0.9561 0.2932 -0.2932 -0.9561 757.4365 713.1968)" class="st9" width="63" height="3.9"/>
						<g>
							<path class="st13" d="M314.9,395.9c0.1,0.5,0.7,0.8,1.1,0.6c0.5-0.1,0.8-0.7,0.6-1.1c-0.1-0.5-0.7-0.8-1.1-0.6
								C315,394.9,314.7,395.4,314.9,395.9z"/>
							<path class="st13" d="M318.8,398.9c0.1,0.5,0.7,0.8,1.1,0.6c0.5-0.1,0.8-0.7,0.6-1.1c-0.1-0.5-0.7-0.8-1.1-0.6
								C318.9,398,318.6,398.5,318.8,398.9z"/>
							<path class="st13" d="M324.5,399.8c0.1,0.5,0.7,0.8,1.1,0.6c0.5-0.1,0.8-0.7,0.6-1.1c-0.1-0.5-0.7-0.8-1.1-0.6
								C324.6,398.8,324.4,399.3,324.5,399.8z"/>
							<path class="st13" d="M330.6,398.9c0.1,0.5,0.7,0.8,1.1,0.6c0.5-0.1,0.8-0.7,0.6-1.1c-0.1-0.5-0.7-0.8-1.1-0.6
								C330.8,397.9,330.5,398.4,330.6,398.9z"/>
						</g>
						<path class="st14" d="M321.7,395.8c0,0,4.2-7.8,8.4-8.6c4.3-0.8,2.7,3.5,0.1,5.4c-3.3,2.5-8.2,4.4-8.2,4.4"/>
						<path class="st14" d="M320.2,396.4c0,0-2.8-8.4-0.5-12c2.4-3.6,4.3,0.5,4,3.6c-0.5,4.1-2.5,8.9-2.5,8.9"/>
						<line class="st15" x1="296.7" y1="420.1" x2="352.5" y2="403"/>
					</g>
				</g>
				<g>
					<polygon class="st16" points="264,228.7 294.3,302 310.3,357.7 278.8,371.4 260.7,318.9 233.7,273.3 					"/>
					<polygon class="st17" points="277.4,375.7 314,363 309.4,350.5 273.4,363.1 					"/>
				</g>
			</g>
			<g>
				<g>
					<g>
						<polygon class="st12" points="172.5,333.4 146.9,373.8 167,385.2 195.5,348.5 						"/>
						<polygon class="st7" points="156.4,358.7 176.9,372.5 167,385.2 148.1,371.2 						"/>
					</g>
					<g>
						<path class="st9" d="M148,367.8l-13.9,18.5l46.7,35c0,0,7.6-6.8-1.2-15.6c-8.7-8.8-11.5-9.9-11.5-14.5c0-2.6,1.4-5.1,2.4-6.7
							c0.7-0.9,0.5-2.2-0.5-2.9L151,367.4C150.1,366.7,148.7,366.9,148,367.8z"/>
						<rect x="124.9" y="403.5" transform="matrix(-0.8 -0.6 0.6 -0.8 38.2728 823.7006)" class="st9" width="63" height="3.9"/>
						<g>
							<path class="st13" d="M164.4,386.8c-0.3,0.4-0.2,1,0.2,1.3c0.4,0.3,1,0.2,1.3-0.2c0.3-0.4,0.2-1-0.2-1.3
								S164.7,386.4,164.4,386.8z"/>
							<path class="st13" d="M164.2,391.7c-0.3,0.4-0.2,1,0.2,1.3c0.4,0.3,1,0.2,1.3-0.2c0.3-0.4,0.2-1-0.2-1.3
								C165.1,391.2,164.5,391.3,164.2,391.7z"/>
							<path class="st13" d="M166.9,396.9c-0.3,0.4-0.2,1,0.2,1.3c0.4,0.3,1,0.2,1.3-0.2c0.3-0.4,0.2-1-0.2-1.3
								C167.8,396.4,167.2,396.5,166.9,396.9z"/>
							<path class="st13" d="M171.3,401.3c-0.3,0.4-0.2,1,0.2,1.3s1,0.2,1.3-0.2c0.3-0.4,0.2-1-0.2-1.3
								C172.2,400.8,171.6,400.9,171.3,401.3z"/>
						</g>
						<path class="st14" d="M168.5,392.3c0,0,8.8-1.3,11.9,1.7c3.1,3-1.2,4.2-4.3,3.3c-3.9-1.2-8.3-4.1-8.3-4.1"/>
						<path class="st14" d="M167.2,391.4c0,0,5.1-7.2,9.4-7.5c4.3-0.2,2.2,3.8-0.6,5.3c-3.6,2-8.7,3.3-8.7,3.3"/>
						<line class="st15" x1="134.1" y1="386.3" x2="180.8" y2="421.3"/>
					</g>
				</g>
				<g>
					<path class="st18" d="M264,228.7c0,0,2.7,28.3-33.8,81.1c-36.5,52.8-41,56.2-41,56.2l-30.3-18.4l35.4-52.8l11.5-49.2
						c0,0,5-17.8,21.3-24.5L264,228.7z"/>
					<polygon class="st16" points="157,346.6 190.9,367.4 199.1,357 164.7,336.2 					"/>
					<g>
						<polyline class="st19" points="233.6,222.8 208.3,300.9 174.6,354.6 						"/>
						<path class="st19" d="M233.7,247.2c0,0,14.7-0.7,19.7-16.5"/>
					</g>
				</g>
			</g>
		</g>
		<g>
			<g>
				<polygon class="st12" points="254,133.5 244.9,140.8 237.5,161 255.6,174.7 264.9,148.8 				"/>
				<path class="st20" d="M259.3,136.9c0,0-9.1,14.1,0.8,25.2l2.8-7.8L259.3,136.9z"/>
			</g>
			<g>
				<path class="st12" d="M285.8,127.9l-5.9,19.2c-2.2,7.1-10,10.8-16.9,7.8c0,0-6-3.5-6.4-12.2l-1.3-17.6L285.8,127.9z"/>
				<path class="st12" d="M280.5,138.1l3.1,6.1c0.3,0.9-0.6,1.6-1.7,1.3l-3.9-1L280.5,138.1z"/>
				<path class="st9" d="M257.2,136.6c0.2-0.4,7.7-0.1,10.9-11.9l-13.2-3l-2.8,7.8L257.2,136.6z"/>
				<path class="st9" d="M252.4,136.1c0,0-0.5,4.6-3.3,4.8s-4.3,0-4.3,0s0.6-3.3-0.9-5.2c-1.4-1.7-11.1-11.1-3.3-22.8
					c2.8-4.2,7.5-6.8,12.5-6.6c4.2,0.2,9.4,2,15,8.1l-7.8,13.8L252.4,136.1z"/>
				<path class="st9" d="M264.2,126.7c0,0,16.9,6.1,25.3,6.7c0,0,1-14.9-10.3-23.6c-11.3-8.7-22.5,5.8-22.5,5.8L264.2,126.7z"/>
				<path class="st9" d="M285.7,119c0,0-2.2-11.3-20.5-15.5c-18.3-4.2-25.6,11.2-25.6,11.2l15,5.9L285.7,119z"/>
				<path class="st9" d="M252.4,107.8c0,0,5.8-19.1-5-30.5c-9.1-9.5-17.2-8.4-21.9-2.5c-4.8,5.9-0.6,16.8,5.1,23.2
					c6.8,7.6,13.6,10.7,18.7,12.4L252.4,107.8z"/>
				<path class="st12" d="M259.4,134.2c-0.8,2.9-3.7,4.6-6.5,3.8c-2.9-0.8-4.6-3.7-3.8-6.5c0.8-2.9,3.7-4.6,6.5-3.8
					C258.5,128.4,260.2,131.3,259.4,134.2z"/>
				<g>
					<path class="st21" d="M280.5,138.1c-0.2,0.6-0.9,0.9-1.5,0.7c-0.6-0.2-0.9-0.9-0.7-1.5c0.2-0.6,0.9-0.9,1.5-0.7
						C280.4,136.8,280.7,137.5,280.5,138.1z"/>
					<path class="st21" d="M282.4,134.3c0,0.5-1.7,0.8-3.8,0.7c-2.1-0.1-3.7-0.6-3.7-1.1c0-0.5,1.7-0.8,3.8-0.7
						C280.7,133.3,282.4,133.8,282.4,134.3z"/>
					<path class="st22" d="M274.2,144.7c0,0,1.1,3.1,5.2,3.1"/>
				</g>
			</g>
		</g>
		<g>
			<g>
				<path class="st7" d="M259.6,228.3c0,0,16.3-25.3,8.2-41.3c-8.1-15.9-17.4-24.7-27.2-28.9c0,0-0.1,0-0.1,0
					c-4.4-1.9-9.5-0.7-12.8,2.8c-11.6,12.6-12.9,27.5-9.2,58.1L259.6,228.3z"/>
				<path class="st9" d="M227.7,161c0,0,25.4,0.9,27.4,23.5c2,22.6-27.6,37.5-43.7,29.9v3.9c0,0,44.2,9.7,48.3-27.3
					c4.1-37-40.5-33.7-40.5-33.7L227.7,161z"/>
			</g>
			<g>
				<g>
					<path class="st9" d="M339.8,172L220.3,423.1c-0.5,1.2,0.1,2.5,1.4,2.8l0,0c0.9,0.2,1.8-0.2,2.3-1.1l121.7-250.1
						c0.7-1.5,0.1-3.4-1.4-4.2l0,0C342.6,169.6,340.6,170.3,339.8,172z"/>
					<path class="st9" d="M330.8,181.2l2.1,8l-3.6,5.6l-1.3-13.1c-0.1-0.6,0.3-1.2,0.9-1.5h0C329.7,179.9,330.6,180.3,330.8,181.2z"
						/>
					<path class="st23" d="M345.9,173.1c0,1.7-1.4,3.2-3.2,3.2s-3.2-1.4-3.2-3.2c0-1.7,1.4-3.2,3.2-3.2S345.9,171.4,345.9,173.1z"/>
					<path class="st23" d="M330.9,181.5c0,0.8-0.7,1.5-1.5,1.5c-0.8,0-1.5-0.7-1.5-1.5c0-0.8,0.7-1.5,1.5-1.5
						C330.2,180,330.9,180.7,330.9,181.5z"/>
				</g>
				<g>
					<path class="st12" d="M291.1,222.2l15.6-0.1l12.7-10.1c0.6-0.4,1.3-0.5,1.9-0.2l0,0c1.1,0.6,1.4,2,0.5,2.9l-3.5,4.8l6.8-2.6
						c2-0.4,3.8,1.2,3.7,3.2l-0.4,6.9c-0.2,2.9-2,5.4-4.6,6.4c-4.3,1.7-5.8,3.6-14.3,1.9l-17.6-0.7L291.1,222.2z"/>
					<g>
						<path class="st7" d="M254,180.4l9.6,29.3c0,0,17.2,9,37,11.2l1.1,22.2c0,0-36.8-1.6-50.4-7.1c-1.6-0.6-3-1.6-4.1-2.9
							c-3.9-4.5-14.2-18.1-21.6-44c-1.9-6.7,1.2-13.9,7.4-17.2l0,0C241.1,167.6,251.2,171.6,254,180.4z"/>
						<path class="st24" d="M225.2,186.8c0,0,4.2,20.4,11.9,31.4"/>
						<polyline class="st24" points="253.3,178.5 263.6,209.7 267.6,211.6 						"/>
					</g>
				</g>
			</g>
		</g>
	</g>
</g>
<g id="DESIGNED_BY_FREEPIK">
</g>
</svg>
